<?xml version="1.0" encoding="UTF-8" standalone="no"?>
<svg
   xmlns:dc="http://purl.org/dc/elements/1.1/"
   xmlns:cc="http://creativecommons.org/ns#"
   xmlns:rdf="http://www.w3.org/1999/02/22-rdf-syntax-ns#"
   xmlns:svg="http://www.w3.org/2000/svg"
   xmlns="http://www.w3.org/2000/svg"
   viewBox="0 0 267.25601 39.470135"
   height="39.470135"
   width="267.25601"
   xml:space="preserve"
   id="svg2"
   version="1.1"><metadata
     id="metadata8"><rdf:RDF><cc:Work
         rdf:about=""><dc:format>image/svg+xml</dc:format><dc:type
           rdf:resource="http://purl.org/dc/dcmitype/StillImage" /></cc:Work></rdf:RDF></metadata><defs
     id="defs6"><clipPath
       id="clipPath18"
       clipPathUnits="userSpaceOnUse"><path
         id="path16"
         d="M 0,29.603 H 200.442 V 0 H 0 Z" /></clipPath></defs><g
     transform="matrix(1.3333333,0,0,-1.3333333,0,39.470133)"
     id="g10"><g
       id="g12"><g
         clip-path="url(#clipPath18)"
         id="g14"><g
           transform="translate(9.5586,8.9126)"
           id="g20"><path
             id="path22"
             style="fill:#683c10;fill-opacity:1;fill-rule:nonzero;stroke:none"
             d="M 0,0 C 0.069,-0.04 0.166,-0.048 0.292,-0.026 0.44,0.032 0.612,0.089 0.807,0.146 1.001,0.204 1.225,0.364 1.477,0.626 1.305,0.684 1.173,0.712 1.082,0.712 0.669,0.712 0.369,0.652 0.18,0.532 -0.009,0.412 -0.103,0.295 -0.103,0.18 -0.103,0.101 -0.069,0.04 0,0" /></g><g
           transform="translate(9.5586,8.9126)"
           id="g24"><path
             id="path26"
             style="fill:none;stroke:#683c10;stroke-width:0.30000001;stroke-linecap:butt;stroke-linejoin:miter;stroke-miterlimit:10;stroke-dasharray:none;stroke-opacity:1"
             d="M 0,0 C 0.069,-0.04 0.166,-0.048 0.292,-0.026 0.44,0.032 0.612,0.089 0.807,0.146 1.001,0.204 1.225,0.364 1.477,0.626 1.305,0.684 1.173,0.712 1.082,0.712 0.669,0.712 0.369,0.652 0.18,0.532 -0.009,0.412 -0.103,0.295 -0.103,0.18 -0.103,0.101 -0.069,0.04 0,0 Z" /></g><g
           transform="translate(20.3414,15.2828)"
           id="g28"><path
             id="path30"
             style="fill:#683c10;fill-opacity:1;fill-rule:nonzero;stroke:none"
             d="M 0,0 C 0.16,0.372 0.332,0.687 0.515,0.944 0.698,1.202 0.884,1.399 1.073,1.537 1.262,1.674 1.425,1.743 1.562,1.743 1.688,1.743 1.786,1.694 1.854,1.597 1.923,1.5 1.946,1.342 1.923,1.125 1.9,0.918 1.791,0.672 1.597,0.386 1.402,0.1 1.059,-0.232 0.566,-0.609 0.406,-0.736 0.246,-0.853 0.086,-0.961 -0.075,-1.07 -0.223,-1.176 -0.361,-1.279 -0.281,-0.798 -0.161,-0.372 0,0 M 6,-0.361 C 5.949,-0.321 5.88,-0.309 5.795,-0.326 5.709,-0.343 5.625,-0.398 5.546,-0.489 5.316,-0.764 5.028,-1.09 4.679,-1.468 4.329,-1.846 3.952,-2.209 3.545,-2.559 3.139,-2.908 2.724,-3.205 2.301,-3.451 1.877,-3.698 1.471,-3.82 1.082,-3.82 c -0.184,0 -0.364,0.026 -0.541,0.077 -0.178,0.052 -0.335,0.137 -0.473,0.258 -0.137,0.12 -0.252,0.277 -0.343,0.472 -0.092,0.194 -0.143,0.434 -0.154,0.721 0.171,0.125 0.371,0.266 0.6,0.42 0.229,0.155 0.47,0.318 0.722,0.49 0.229,0.16 0.472,0.337 0.73,0.532 0.257,0.194 0.5,0.412 0.729,0.652 0.229,0.241 0.426,0.51 0.592,0.807 C 3.11,0.907 3.21,1.233 3.245,1.588 3.268,1.908 3.182,2.178 2.987,2.395 2.792,2.612 2.478,2.721 2.043,2.721 1.585,2.721 1.13,2.578 0.678,2.292 0.226,2.006 -0.181,1.645 -0.541,1.21 c -0.36,-0.435 -0.664,-0.913 -0.91,-1.433 -0.246,-0.521 -0.392,-1.016 -0.438,-1.485 -0.057,-0.573 -0.014,-1.06 0.129,-1.46 0.143,-0.401 0.335,-0.727 0.575,-0.978 0.241,-0.252 0.507,-0.438 0.799,-0.559 0.291,-0.12 0.563,-0.18 0.815,-0.18 0.481,0 0.976,0.114 1.486,0.343 0.508,0.23 1.006,0.53 1.493,0.902 0.487,0.372 0.947,0.795 1.382,1.27 0.435,0.475 0.824,0.965 1.168,1.469 0.08,0.125 0.12,0.237 0.12,0.334 0,0.097 -0.026,0.166 -0.078,0.206" /></g><g
           transform="translate(20.3414,15.2828)"
           id="g32"><path
             id="path34"
             style="fill:none;stroke:#683c10;stroke-width:0.30000001;stroke-linecap:butt;stroke-linejoin:miter;stroke-miterlimit:10;stroke-dasharray:none;stroke-opacity:1"
             d="M 0,0 C 0.16,0.372 0.332,0.687 0.515,0.944 0.698,1.202 0.884,1.399 1.073,1.537 1.262,1.674 1.425,1.743 1.562,1.743 1.688,1.743 1.786,1.694 1.854,1.597 1.923,1.5 1.946,1.342 1.923,1.125 1.9,0.918 1.791,0.672 1.597,0.386 1.402,0.1 1.059,-0.232 0.566,-0.609 0.406,-0.736 0.246,-0.853 0.086,-0.961 -0.075,-1.07 -0.223,-1.176 -0.361,-1.279 -0.281,-0.798 -0.161,-0.372 0,0 Z M 6,-0.361 C 5.949,-0.321 5.88,-0.309 5.795,-0.326 5.709,-0.343 5.625,-0.398 5.546,-0.489 5.316,-0.764 5.028,-1.09 4.679,-1.468 4.329,-1.846 3.952,-2.209 3.545,-2.559 3.139,-2.908 2.724,-3.205 2.301,-3.451 1.877,-3.698 1.471,-3.82 1.082,-3.82 c -0.184,0 -0.364,0.026 -0.541,0.077 -0.178,0.052 -0.335,0.137 -0.473,0.258 -0.137,0.12 -0.252,0.277 -0.343,0.472 -0.092,0.194 -0.143,0.434 -0.154,0.721 0.171,0.125 0.371,0.266 0.6,0.42 0.229,0.155 0.47,0.318 0.722,0.49 0.229,0.16 0.472,0.337 0.73,0.532 0.257,0.194 0.5,0.412 0.729,0.652 0.229,0.241 0.426,0.51 0.592,0.807 C 3.11,0.907 3.21,1.233 3.245,1.588 3.268,1.908 3.182,2.178 2.987,2.395 2.792,2.612 2.478,2.721 2.043,2.721 1.585,2.721 1.13,2.578 0.678,2.292 0.226,2.006 -0.181,1.645 -0.541,1.21 c -0.36,-0.435 -0.664,-0.913 -0.91,-1.433 -0.246,-0.521 -0.392,-1.016 -0.438,-1.485 -0.057,-0.573 -0.014,-1.06 0.129,-1.46 0.143,-0.401 0.335,-0.727 0.575,-0.978 0.241,-0.252 0.507,-0.438 0.799,-0.559 0.291,-0.12 0.563,-0.18 0.815,-0.18 0.481,0 0.976,0.114 1.486,0.343 0.508,0.23 1.006,0.53 1.493,0.902 0.487,0.372 0.947,0.795 1.382,1.27 0.435,0.475 0.824,0.965 1.168,1.469 0.08,0.125 0.12,0.237 0.12,0.334 0,0.097 -0.026,0.166 -0.078,0.206 z" /></g><g
           transform="translate(44.9888,15.8838)"
           id="g36"><path
             id="path38"
             style="fill:#683c10;fill-opacity:1;fill-rule:nonzero;stroke:none"
             d="m 0,0 c -0.029,-0.189 -0.072,-0.427 -0.129,-0.713 -0.058,-0.286 -0.126,-0.583 -0.206,-0.892 -0.08,-0.31 -0.149,-0.579 -0.206,-0.808 -0.012,-0.057 -0.06,-0.149 -0.146,-0.275 -0.086,-0.125 -0.195,-0.263 -0.326,-0.411 -0.132,-0.149 -0.281,-0.292 -0.446,-0.43 -0.166,-0.137 -0.333,-0.249 -0.499,-0.334 -0.166,-0.086 -0.329,-0.132 -0.489,-0.138 -0.16,-0.006 -0.303,0.054 -0.429,0.181 -0.069,0.068 -0.115,0.214 -0.138,0.437 -0.023,0.223 -0.014,0.484 0.026,0.781 0.04,0.298 0.112,0.616 0.215,0.954 0.103,0.337 0.24,0.655 0.412,0.952 0.412,0.721 0.776,1.217 1.09,1.486 0.315,0.269 0.535,0.352 0.661,0.249 C -0.575,0.993 -0.553,0.93 -0.541,0.85 -0.53,0.781 -0.532,0.687 -0.55,0.566 -0.567,0.446 -0.621,0.294 -0.713,0.111 c 0.092,0.023 0.183,0.04 0.275,0.052 0.091,0.011 0.166,0.028 0.223,0.051 0.069,0.023 0.132,0.04 0.189,0.052 C 0.02,0.277 0.028,0.188 0,0 M 23.917,1.382 C 23.843,1.554 23.651,1.651 23.342,1.674 23.216,1.685 23.091,1.674 22.965,1.64 22.85,1.616 22.721,1.574 22.578,1.511 22.435,1.448 22.289,1.359 22.141,1.245 22.323,1.05 22.403,0.833 22.381,0.592 22.357,0.352 22.306,0.02 22.227,-0.404 22.169,-0.621 22.08,-0.867 21.96,-1.142 c -0.12,-0.275 -0.258,-0.555 -0.412,-0.841 -0.154,-0.287 -0.323,-0.57 -0.506,-0.85 -0.184,-0.281 -0.37,-0.53 -0.559,-0.747 -0.188,-0.218 -0.375,-0.392 -0.557,-0.524 -0.184,-0.131 -0.35,-0.197 -0.498,-0.197 -0.31,0 -0.51,0.14 -0.602,0.42 -0.091,0.281 -0.085,0.678 0.018,1.193 0.011,0.115 0.062,0.307 0.154,0.576 0.092,0.269 0.194,0.564 0.31,0.884 0.114,0.32 0.222,0.632 0.326,0.936 0.102,0.303 0.177,0.552 0.222,0.747 0.092,0.366 0.113,0.641 0.061,0.824 -0.052,0.183 -0.232,0.298 -0.541,0.343 -0.126,0.012 -0.252,0.012 -0.378,0 C 18.884,1.599 18.755,1.568 18.612,1.528 18.469,1.488 18.317,1.417 18.157,1.313 18.317,1.107 18.365,0.85 18.303,0.541 18.24,0.231 18.14,-0.141 18.003,-0.575 17.968,-0.667 17.919,-0.819 17.856,-1.03 c -0.063,-0.212 -0.128,-0.45 -0.197,-0.713 -0.035,-0.136 -0.065,-0.284 -0.097,-0.426 -0.008,-0.01 -0.015,-0.019 -0.023,-0.029 -0.206,-0.258 -0.43,-0.521 -0.67,-0.79 -0.24,-0.269 -0.483,-0.515 -0.729,-0.738 -0.246,-0.223 -0.487,-0.406 -0.722,-0.549 -0.234,-0.144 -0.449,-0.215 -0.644,-0.215 -0.263,0 -0.423,0.046 -0.48,0.137 -0.058,0.092 -0.098,0.212 -0.12,0.361 -0.024,0.229 0.045,0.486 0.206,0.772 0.16,0.286 0.32,0.544 0.48,0.773 0.264,0.366 0.487,0.704 0.67,1.013 0.183,0.309 0.257,0.607 0.223,0.893 -0.012,0.137 -0.037,0.289 -0.077,0.455 -0.04,0.166 -0.101,0.32 -0.18,0.463 C 15.415,0.521 15.313,0.641 15.187,0.738 15.061,0.835 14.9,0.884 14.706,0.884 14.545,0.884 14.428,0.873 14.354,0.85 14.279,0.827 14.15,0.815 13.968,0.815 c -0.126,0 -0.218,0.015 -0.276,0.043 -0.056,0.029 -0.102,0.055 -0.136,0.078 0.126,0.183 0.212,0.389 0.257,0.618 0.045,0.228 0.057,0.417 0.035,0.566 -0.024,0.217 -0.101,0.429 -0.233,0.635 -0.132,0.206 -0.357,0.309 -0.677,0.309 -0.172,0 -0.35,-0.08 -0.533,-0.24 C 12.222,2.664 12.056,2.472 11.907,2.249 11.758,2.026 11.638,1.794 11.547,1.554 11.455,1.313 11.421,1.119 11.443,0.97 11.467,0.798 11.501,0.687 11.547,0.635 11.592,0.583 11.678,0.5 11.804,0.386 11.735,0.26 11.627,0.057 11.478,-0.224 11.329,-0.504 11.166,-0.822 10.988,-1.176 10.873,-1.407 10.753,-1.649 10.63,-1.897 10.557,-1.994 10.48,-2.092 10.396,-2.198 10.19,-2.456 9.967,-2.719 9.727,-2.988 9.486,-3.257 9.243,-3.503 8.997,-3.726 8.751,-3.949 8.51,-4.132 8.275,-4.275 8.041,-4.419 7.826,-4.49 7.632,-4.49 c -0.264,0 -0.424,0.046 -0.481,0.137 -0.057,0.092 -0.097,0.212 -0.12,0.361 -0.023,0.229 0.045,0.486 0.206,0.772 0.16,0.286 0.321,0.544 0.481,0.773 0.262,0.366 0.486,0.704 0.67,1.013 0.182,0.309 0.257,0.607 0.222,0.893 -0.011,0.137 -0.037,0.289 -0.077,0.455 -0.04,0.166 -0.1,0.32 -0.18,0.463 C 8.272,0.521 8.17,0.641 8.044,0.738 7.918,0.835 7.758,0.884 7.563,0.884 7.402,0.884 7.285,0.873 7.211,0.85 7.137,0.827 7.008,0.815 6.825,0.815 6.699,0.815 6.607,0.83 6.55,0.858 6.493,0.887 6.447,0.913 6.413,0.936 6.539,1.119 6.624,1.325 6.67,1.554 6.716,1.782 6.728,1.971 6.705,2.12 6.682,2.337 6.604,2.549 6.473,2.755 6.341,2.961 6.115,3.064 5.795,3.064 5.623,3.064 5.445,2.984 5.262,2.824 5.079,2.664 4.913,2.472 4.765,2.249 4.616,2.026 4.496,1.794 4.404,1.554 4.312,1.313 4.278,1.119 4.301,0.97 4.324,0.798 4.358,0.687 4.404,0.635 4.45,0.583 4.535,0.5 4.662,0.386 4.593,0.26 4.484,0.057 4.335,-0.224 4.187,-0.504 4.023,-0.822 3.846,-1.176 3.72,-1.429 3.587,-1.695 3.453,-1.968 3.426,-2.002 3.401,-2.033 3.374,-2.069 3.179,-2.321 2.97,-2.582 2.747,-2.851 2.524,-3.12 2.309,-3.366 2.103,-3.589 1.897,-3.812 1.702,-3.995 1.52,-4.138 1.336,-4.281 1.187,-4.353 1.073,-4.353 c -0.137,0 -0.243,0.032 -0.318,0.095 -0.074,0.063 -0.129,0.146 -0.163,0.249 -0.034,0.103 -0.054,0.214 -0.06,0.335 -0.006,0.12 -0.003,0.231 0.009,0.334 0.034,0.172 0.063,0.315 0.085,0.429 0.023,0.115 0.043,0.215 0.061,0.301 0.017,0.086 0.034,0.172 0.051,0.257 0.017,0.086 0.037,0.181 0.06,0.284 0.115,0.526 0.206,0.955 0.275,1.288 0.069,0.331 0.12,0.594 0.155,0.789 0.034,0.195 0.051,0.329 0.051,0.404 0,0.074 -0.006,0.123 -0.017,0.146 C 1.239,0.569 1.193,0.575 1.125,0.575 1.067,0.575 0.984,0.569 0.875,0.558 0.767,0.546 0.632,0.523 0.472,0.489 0.712,0.855 0.807,1.15 0.755,1.374 0.704,1.597 0.598,1.765 0.437,1.88 0.243,2.006 -0.009,2.097 -0.318,2.155 -0.581,2.177 -0.913,2.086 -1.313,1.88 -1.714,1.674 -2.121,1.368 -2.533,0.961 -2.945,0.555 -3.325,0.065 -3.674,-0.507 c -0.35,-0.572 -0.604,-1.207 -0.764,-1.906 -0.126,-0.515 -0.172,-0.959 -0.138,-1.33 0.034,-0.372 0.115,-0.676 0.241,-0.91 0.125,-0.235 0.28,-0.407 0.463,-0.515 0.183,-0.109 0.355,-0.164 0.515,-0.164 0.343,0.023 0.687,0.098 1.03,0.224 0.298,0.114 0.613,0.295 0.945,0.541 0.332,0.246 0.635,0.598 0.91,1.056 -0.012,-0.309 0.008,-0.567 0.06,-0.773 0.051,-0.206 0.105,-0.372 0.163,-0.498 0.069,-0.149 0.154,-0.263 0.257,-0.343 0.103,-0.069 0.223,-0.118 0.361,-0.146 0.137,-0.029 0.283,-0.038 0.438,-0.026 0.154,0.011 0.306,0.04 0.455,0.086 0.149,0.045 0.28,0.103 0.395,0.171 0.135,0.091 0.3,0.236 0.489,0.431 L 2.086,-4.73 C 2.018,-4.868 1.995,-4.982 2.018,-5.074 c 0.023,-0.092 0.071,-0.152 0.145,-0.18 0.075,-0.029 0.161,-0.023 0.258,0.017 0.097,0.04 0.186,0.123 0.266,0.249 0.034,0.046 0.123,0.186 0.266,0.421 0.143,0.234 0.318,0.52 0.524,0.858 0.206,0.337 0.426,0.701 0.661,1.09 0.234,0.39 0.458,0.762 0.67,1.117 0.211,0.354 0.397,0.663 0.557,0.927 0.16,0.263 0.263,0.434 0.309,0.515 0.092,-0.023 0.189,-0.058 0.292,-0.104 0.103,-0.045 0.229,-0.068 0.378,-0.068 0.103,0 0.18,0.003 0.232,0.008 0.051,0.006 0.091,0.009 0.12,0.009 0.029,0 0.057,0.003 0.086,0.009 0.029,0.005 0.077,0.008 0.146,0.008 0.103,0 0.177,-0.04 0.223,-0.12 C 7.196,-0.398 7.22,-0.49 7.22,-0.593 7.22,-0.753 7.16,-0.951 7.039,-1.185 6.919,-1.42 6.762,-1.703 6.567,-2.035 6.487,-2.195 6.398,-2.358 6.301,-2.524 6.204,-2.69 6.112,-2.856 6.026,-3.022 5.94,-3.188 5.866,-3.348 5.803,-3.503 5.74,-3.657 5.703,-3.803 5.692,-3.941 5.68,-4.112 5.7,-4.299 5.752,-4.499 c 0.051,-0.2 0.137,-0.383 0.257,-0.549 0.121,-0.166 0.278,-0.306 0.472,-0.421 0.195,-0.114 0.441,-0.172 0.739,-0.172 0.286,0 0.587,0.086 0.901,0.258 0.315,0.172 0.63,0.392 0.944,0.661 0.107,0.091 0.208,0.189 0.311,0.286 C 9.304,-4.581 9.254,-4.68 9.229,-4.73 9.16,-4.868 9.137,-4.982 9.16,-5.074 c 0.024,-0.092 0.071,-0.152 0.146,-0.18 0.075,-0.029 0.161,-0.023 0.257,0.017 0.098,0.04 0.187,0.123 0.266,0.249 0.035,0.046 0.124,0.186 0.267,0.421 0.143,0.234 0.317,0.52 0.523,0.858 0.206,0.337 0.427,0.701 0.661,1.09 0.235,0.39 0.458,0.762 0.67,1.117 0.212,0.354 0.398,0.663 0.558,0.927 0.16,0.263 0.263,0.434 0.309,0.515 0.091,-0.023 0.189,-0.058 0.292,-0.104 0.103,-0.045 0.229,-0.068 0.377,-0.068 0.104,0 0.181,0.003 0.233,0.008 0.052,0.006 0.092,0.009 0.12,0.009 0.028,0 0.057,0.003 0.086,0.009 0.028,0.005 0.077,0.008 0.145,0.008 0.104,0 0.178,-0.04 0.224,-0.12 0.045,-0.08 0.068,-0.172 0.068,-0.275 0,-0.16 -0.059,-0.358 -0.18,-0.592 -0.12,-0.235 -0.278,-0.518 -0.472,-0.85 -0.08,-0.16 -0.169,-0.323 -0.267,-0.489 -0.096,-0.166 -0.188,-0.332 -0.274,-0.498 -0.086,-0.166 -0.16,-0.326 -0.223,-0.481 -0.063,-0.154 -0.1,-0.3 -0.112,-0.438 -0.011,-0.171 0.009,-0.358 0.061,-0.558 0.051,-0.2 0.137,-0.383 0.257,-0.549 0.12,-0.166 0.278,-0.306 0.472,-0.421 0.194,-0.114 0.44,-0.172 0.738,-0.172 0.286,0 0.587,0.086 0.902,0.258 0.314,0.172 0.63,0.392 0.944,0.661 0.314,0.269 0.615,0.567 0.901,0.893 0.09,0.103 0.174,0.203 0.259,0.304 -0.006,-0.528 0.102,-0.967 0.334,-1.308 0.258,-0.378 0.695,-0.607 1.314,-0.688 0.251,-0.034 0.495,-0.008 0.729,0.078 0.234,0.086 0.455,0.209 0.661,0.369 0.206,0.16 0.395,0.349 0.567,0.567 0.172,0.217 0.332,0.446 0.48,0.687 -0.057,-0.23 -0.111,-0.461 -0.163,-0.696 -0.051,-0.234 -0.105,-0.472 -0.163,-0.713 -0.148,-0.537 -0.309,-1.144 -0.481,-1.819 -0.16,-0.584 -0.34,-1.271 -0.541,-2.061 -0.2,-0.789 -0.431,-1.665 -0.695,-2.627 0.046,-0.126 0.104,-0.226 0.172,-0.3 0.068,-0.074 0.132,-0.14 0.189,-0.198 0.069,-0.057 0.143,-0.108 0.223,-0.154 0.206,-0.092 0.403,-0.114 0.593,-0.069 0.188,0.046 0.311,0.212 0.369,0.498 0.217,1.167 0.42,2.204 0.609,3.108 0.189,0.904 0.352,1.677 0.49,2.318 0.16,0.732 0.308,1.379 0.446,1.94 0.138,0.687 0.283,1.305 0.437,1.854 0.156,0.55 0.301,1.039 0.439,1.468 0.137,0.429 0.257,0.793 0.36,1.09 0.103,0.298 0.172,0.544 0.206,0.739 C 24,0.936 23.992,1.21 23.917,1.382" /></g><g
           transform="translate(44.9888,15.8838)"
           id="g40"><path
             id="path42"
             style="fill:none;stroke:#683c10;stroke-width:0.30000001;stroke-linecap:butt;stroke-linejoin:miter;stroke-miterlimit:10;stroke-dasharray:none;stroke-opacity:1"
             d="m 0,0 c -0.029,-0.189 -0.072,-0.427 -0.129,-0.713 -0.058,-0.286 -0.126,-0.583 -0.206,-0.892 -0.08,-0.31 -0.149,-0.579 -0.206,-0.808 -0.012,-0.057 -0.06,-0.149 -0.146,-0.275 -0.086,-0.125 -0.195,-0.263 -0.326,-0.411 -0.132,-0.149 -0.281,-0.292 -0.446,-0.43 -0.166,-0.137 -0.333,-0.249 -0.499,-0.334 -0.166,-0.086 -0.329,-0.132 -0.489,-0.138 -0.16,-0.006 -0.303,0.054 -0.429,0.181 -0.069,0.068 -0.115,0.214 -0.138,0.437 -0.023,0.223 -0.014,0.484 0.026,0.781 0.04,0.298 0.112,0.616 0.215,0.954 0.103,0.337 0.24,0.655 0.412,0.952 0.412,0.721 0.776,1.217 1.09,1.486 0.315,0.269 0.535,0.352 0.661,0.249 C -0.575,0.993 -0.553,0.93 -0.541,0.85 -0.53,0.781 -0.532,0.687 -0.55,0.566 -0.567,0.446 -0.621,0.294 -0.713,0.111 c 0.092,0.023 0.183,0.04 0.275,0.052 0.091,0.011 0.166,0.028 0.223,0.051 0.069,0.023 0.132,0.04 0.189,0.052 C 0.02,0.277 0.028,0.188 0,0 Z M 23.917,1.382 C 23.843,1.554 23.651,1.651 23.342,1.674 23.216,1.685 23.091,1.674 22.965,1.64 22.85,1.616 22.721,1.574 22.578,1.511 22.435,1.448 22.289,1.359 22.141,1.245 22.323,1.05 22.403,0.833 22.381,0.592 22.357,0.352 22.306,0.02 22.227,-0.404 22.169,-0.621 22.08,-0.867 21.96,-1.142 c -0.12,-0.275 -0.258,-0.555 -0.412,-0.841 -0.154,-0.287 -0.323,-0.57 -0.506,-0.85 -0.184,-0.281 -0.37,-0.53 -0.559,-0.747 -0.188,-0.218 -0.375,-0.392 -0.557,-0.524 -0.184,-0.131 -0.35,-0.197 -0.498,-0.197 -0.31,0 -0.51,0.14 -0.602,0.42 -0.091,0.281 -0.085,0.678 0.018,1.193 0.011,0.115 0.062,0.307 0.154,0.576 0.092,0.269 0.194,0.564 0.31,0.884 0.114,0.32 0.222,0.632 0.326,0.936 0.102,0.303 0.177,0.552 0.222,0.747 0.092,0.366 0.113,0.641 0.061,0.824 -0.052,0.183 -0.232,0.298 -0.541,0.343 -0.126,0.012 -0.252,0.012 -0.378,0 C 18.884,1.599 18.755,1.568 18.612,1.528 18.469,1.488 18.317,1.417 18.157,1.313 18.317,1.107 18.365,0.85 18.303,0.541 18.24,0.231 18.14,-0.141 18.003,-0.575 17.968,-0.667 17.919,-0.819 17.856,-1.03 c -0.063,-0.212 -0.128,-0.45 -0.197,-0.713 -0.035,-0.136 -0.065,-0.284 -0.097,-0.426 -0.008,-0.01 -0.015,-0.019 -0.023,-0.029 -0.206,-0.258 -0.43,-0.521 -0.67,-0.79 -0.24,-0.269 -0.483,-0.515 -0.729,-0.738 -0.246,-0.223 -0.487,-0.406 -0.722,-0.549 -0.234,-0.144 -0.449,-0.215 -0.644,-0.215 -0.263,0 -0.423,0.046 -0.48,0.137 -0.058,0.092 -0.098,0.212 -0.12,0.361 -0.024,0.229 0.045,0.486 0.206,0.772 0.16,0.286 0.32,0.544 0.48,0.773 0.264,0.366 0.487,0.704 0.67,1.013 0.183,0.309 0.257,0.607 0.223,0.893 -0.012,0.137 -0.037,0.289 -0.077,0.455 -0.04,0.166 -0.101,0.32 -0.18,0.463 C 15.415,0.521 15.313,0.641 15.187,0.738 15.061,0.835 14.9,0.884 14.706,0.884 14.545,0.884 14.428,0.873 14.354,0.85 14.279,0.827 14.15,0.815 13.968,0.815 c -0.126,0 -0.218,0.015 -0.276,0.043 -0.056,0.029 -0.102,0.055 -0.136,0.078 0.126,0.183 0.212,0.389 0.257,0.618 0.045,0.228 0.057,0.417 0.035,0.566 -0.024,0.217 -0.101,0.429 -0.233,0.635 -0.132,0.206 -0.357,0.309 -0.677,0.309 -0.172,0 -0.35,-0.08 -0.533,-0.24 C 12.222,2.664 12.056,2.472 11.907,2.249 11.758,2.026 11.638,1.794 11.547,1.554 11.455,1.313 11.421,1.119 11.443,0.97 11.467,0.798 11.501,0.687 11.547,0.635 11.592,0.583 11.678,0.5 11.804,0.386 11.735,0.26 11.627,0.057 11.478,-0.224 11.329,-0.504 11.166,-0.822 10.988,-1.176 10.873,-1.407 10.753,-1.649 10.63,-1.897 10.557,-1.994 10.48,-2.092 10.396,-2.198 10.19,-2.456 9.967,-2.719 9.727,-2.988 9.486,-3.257 9.243,-3.503 8.997,-3.726 8.751,-3.949 8.51,-4.132 8.275,-4.275 8.041,-4.419 7.826,-4.49 7.632,-4.49 c -0.264,0 -0.424,0.046 -0.481,0.137 -0.057,0.092 -0.097,0.212 -0.12,0.361 -0.023,0.229 0.045,0.486 0.206,0.772 0.16,0.286 0.321,0.544 0.481,0.773 0.262,0.366 0.486,0.704 0.67,1.013 0.182,0.309 0.257,0.607 0.222,0.893 -0.011,0.137 -0.037,0.289 -0.077,0.455 -0.04,0.166 -0.1,0.32 -0.18,0.463 C 8.272,0.521 8.17,0.641 8.044,0.738 7.918,0.835 7.758,0.884 7.563,0.884 7.402,0.884 7.285,0.873 7.211,0.85 7.137,0.827 7.008,0.815 6.825,0.815 6.699,0.815 6.607,0.83 6.55,0.858 6.493,0.887 6.447,0.913 6.413,0.936 6.539,1.119 6.624,1.325 6.67,1.554 6.716,1.782 6.728,1.971 6.705,2.12 6.682,2.337 6.604,2.549 6.473,2.755 6.341,2.961 6.115,3.064 5.795,3.064 5.623,3.064 5.445,2.984 5.262,2.824 5.079,2.664 4.913,2.472 4.765,2.249 4.616,2.026 4.496,1.794 4.404,1.554 4.312,1.313 4.278,1.119 4.301,0.97 4.324,0.798 4.358,0.687 4.404,0.635 4.45,0.583 4.535,0.5 4.662,0.386 4.593,0.26 4.484,0.057 4.335,-0.224 4.187,-0.504 4.023,-0.822 3.846,-1.176 3.72,-1.429 3.587,-1.695 3.453,-1.968 3.426,-2.002 3.401,-2.033 3.374,-2.069 3.179,-2.321 2.97,-2.582 2.747,-2.851 2.524,-3.12 2.309,-3.366 2.103,-3.589 1.897,-3.812 1.702,-3.995 1.52,-4.138 1.336,-4.281 1.187,-4.353 1.073,-4.353 c -0.137,0 -0.243,0.032 -0.318,0.095 -0.074,0.063 -0.129,0.146 -0.163,0.249 -0.034,0.103 -0.054,0.214 -0.06,0.335 -0.006,0.12 -0.003,0.231 0.009,0.334 0.034,0.172 0.063,0.315 0.085,0.429 0.023,0.115 0.043,0.215 0.061,0.301 0.017,0.086 0.034,0.172 0.051,0.257 0.017,0.086 0.037,0.181 0.06,0.284 0.115,0.526 0.206,0.955 0.275,1.288 0.069,0.331 0.12,0.594 0.155,0.789 0.034,0.195 0.051,0.329 0.051,0.404 0,0.074 -0.006,0.123 -0.017,0.146 C 1.239,0.569 1.193,0.575 1.125,0.575 1.067,0.575 0.984,0.569 0.875,0.558 0.767,0.546 0.632,0.523 0.472,0.489 0.712,0.855 0.807,1.15 0.755,1.374 0.704,1.597 0.598,1.765 0.437,1.88 0.243,2.006 -0.009,2.097 -0.318,2.155 -0.581,2.177 -0.913,2.086 -1.313,1.88 -1.714,1.674 -2.121,1.368 -2.533,0.961 -2.945,0.555 -3.325,0.065 -3.674,-0.507 c -0.35,-0.572 -0.604,-1.207 -0.764,-1.906 -0.126,-0.515 -0.172,-0.959 -0.138,-1.33 0.034,-0.372 0.115,-0.676 0.241,-0.91 0.125,-0.235 0.28,-0.407 0.463,-0.515 0.183,-0.109 0.355,-0.164 0.515,-0.164 0.343,0.023 0.687,0.098 1.03,0.224 0.298,0.114 0.613,0.295 0.945,0.541 0.332,0.246 0.635,0.598 0.91,1.056 -0.012,-0.309 0.008,-0.567 0.06,-0.773 0.051,-0.206 0.105,-0.372 0.163,-0.498 0.069,-0.149 0.154,-0.263 0.257,-0.343 0.103,-0.069 0.223,-0.118 0.361,-0.146 0.137,-0.029 0.283,-0.038 0.438,-0.026 0.154,0.011 0.306,0.04 0.455,0.086 0.149,0.045 0.28,0.103 0.395,0.171 0.135,0.091 0.3,0.236 0.489,0.431 L 2.086,-4.73 C 2.018,-4.868 1.995,-4.982 2.018,-5.074 c 0.023,-0.092 0.071,-0.152 0.145,-0.18 0.075,-0.029 0.161,-0.023 0.258,0.017 0.097,0.04 0.186,0.123 0.266,0.249 0.034,0.046 0.123,0.186 0.266,0.421 0.143,0.234 0.318,0.52 0.524,0.858 0.206,0.337 0.426,0.701 0.661,1.09 0.234,0.39 0.458,0.762 0.67,1.117 0.211,0.354 0.397,0.663 0.557,0.927 0.16,0.263 0.263,0.434 0.309,0.515 0.092,-0.023 0.189,-0.058 0.292,-0.104 0.103,-0.045 0.229,-0.068 0.378,-0.068 0.103,0 0.18,0.003 0.232,0.008 0.051,0.006 0.091,0.009 0.12,0.009 0.029,0 0.057,0.003 0.086,0.009 0.029,0.005 0.077,0.008 0.146,0.008 0.103,0 0.177,-0.04 0.223,-0.12 C 7.196,-0.398 7.22,-0.49 7.22,-0.593 7.22,-0.753 7.16,-0.951 7.039,-1.185 6.919,-1.42 6.762,-1.703 6.567,-2.035 6.487,-2.195 6.398,-2.358 6.301,-2.524 6.204,-2.69 6.112,-2.856 6.026,-3.022 5.94,-3.188 5.866,-3.348 5.803,-3.503 5.74,-3.657 5.703,-3.803 5.692,-3.941 5.68,-4.112 5.7,-4.299 5.752,-4.499 c 0.051,-0.2 0.137,-0.383 0.257,-0.549 0.121,-0.166 0.278,-0.306 0.472,-0.421 0.195,-0.114 0.441,-0.172 0.739,-0.172 0.286,0 0.587,0.086 0.901,0.258 0.315,0.172 0.63,0.392 0.944,0.661 0.107,0.091 0.208,0.189 0.311,0.286 C 9.304,-4.581 9.254,-4.68 9.229,-4.73 9.16,-4.868 9.137,-4.982 9.16,-5.074 c 0.024,-0.092 0.071,-0.152 0.146,-0.18 0.075,-0.029 0.161,-0.023 0.257,0.017 0.098,0.04 0.187,0.123 0.266,0.249 0.035,0.046 0.124,0.186 0.267,0.421 0.143,0.234 0.317,0.52 0.523,0.858 0.206,0.337 0.427,0.701 0.661,1.09 0.235,0.39 0.458,0.762 0.67,1.117 0.212,0.354 0.398,0.663 0.558,0.927 0.16,0.263 0.263,0.434 0.309,0.515 0.091,-0.023 0.189,-0.058 0.292,-0.104 0.103,-0.045 0.229,-0.068 0.377,-0.068 0.104,0 0.181,0.003 0.233,0.008 0.052,0.006 0.092,0.009 0.12,0.009 0.028,0 0.057,0.003 0.086,0.009 0.028,0.005 0.077,0.008 0.145,0.008 0.104,0 0.178,-0.04 0.224,-0.12 0.045,-0.08 0.068,-0.172 0.068,-0.275 0,-0.16 -0.059,-0.358 -0.18,-0.592 -0.12,-0.235 -0.278,-0.518 -0.472,-0.85 -0.08,-0.16 -0.169,-0.323 -0.267,-0.489 -0.096,-0.166 -0.188,-0.332 -0.274,-0.498 -0.086,-0.166 -0.16,-0.326 -0.223,-0.481 -0.063,-0.154 -0.1,-0.3 -0.112,-0.438 -0.011,-0.171 0.009,-0.358 0.061,-0.558 0.051,-0.2 0.137,-0.383 0.257,-0.549 0.12,-0.166 0.278,-0.306 0.472,-0.421 0.194,-0.114 0.44,-0.172 0.738,-0.172 0.286,0 0.587,0.086 0.902,0.258 0.314,0.172 0.63,0.392 0.944,0.661 0.314,0.269 0.615,0.567 0.901,0.893 0.09,0.103 0.174,0.203 0.259,0.304 -0.006,-0.528 0.102,-0.967 0.334,-1.308 0.258,-0.378 0.695,-0.607 1.314,-0.688 0.251,-0.034 0.495,-0.008 0.729,0.078 0.234,0.086 0.455,0.209 0.661,0.369 0.206,0.16 0.395,0.349 0.567,0.567 0.172,0.217 0.332,0.446 0.48,0.687 -0.057,-0.23 -0.111,-0.461 -0.163,-0.696 -0.051,-0.234 -0.105,-0.472 -0.163,-0.713 -0.148,-0.537 -0.309,-1.144 -0.481,-1.819 -0.16,-0.584 -0.34,-1.271 -0.541,-2.061 -0.2,-0.789 -0.431,-1.665 -0.695,-2.627 0.046,-0.126 0.104,-0.226 0.172,-0.3 0.068,-0.074 0.132,-0.14 0.189,-0.198 0.069,-0.057 0.143,-0.108 0.223,-0.154 0.206,-0.092 0.403,-0.114 0.593,-0.069 0.188,0.046 0.311,0.212 0.369,0.498 0.217,1.167 0.42,2.204 0.609,3.108 0.189,0.904 0.352,1.677 0.49,2.318 0.16,0.732 0.308,1.379 0.446,1.94 0.138,0.687 0.283,1.305 0.437,1.854 0.156,0.55 0.301,1.039 0.439,1.468 0.137,0.429 0.257,0.793 0.36,1.09 0.103,0.298 0.172,0.544 0.206,0.739 C 24,0.936 23.992,1.21 23.917,1.382 Z" /></g><g
           transform="translate(182.8453,20.1685)"
           id="g44"><path
             id="path46"
             style="fill:#683c10;fill-opacity:1;fill-rule:nonzero;stroke:none"
             d="M 0,0 C 0.126,0.023 0.249,0.071 0.369,0.146 0.489,0.22 0.598,0.318 0.695,0.438 0.792,0.558 0.858,0.681 0.893,0.807 0.927,0.921 0.941,1.053 0.936,1.202 0.93,1.351 0.904,1.485 0.858,1.605 0.812,1.726 0.747,1.823 0.661,1.897 0.575,1.972 0.469,1.998 0.343,1.975 0.217,1.952 0.068,1.874 -0.104,1.743 -0.274,1.611 -0.418,1.451 -0.532,1.262 -0.647,1.073 -0.698,0.873 -0.687,0.661 -0.676,0.449 -0.55,0.251 -0.31,0.069 -0.229,0 -0.126,-0.023 0,0" /></g><g
           transform="translate(182.8453,20.1685)"
           id="g48"><path
             id="path50"
             style="fill:none;stroke:#683c10;stroke-width:0.30000001;stroke-linecap:butt;stroke-linejoin:miter;stroke-miterlimit:10;stroke-dasharray:none;stroke-opacity:1"
             d="M 0,0 C 0.126,0.023 0.249,0.071 0.369,0.146 0.489,0.22 0.598,0.318 0.695,0.438 0.792,0.558 0.858,0.681 0.893,0.807 0.927,0.921 0.941,1.053 0.936,1.202 0.93,1.351 0.904,1.485 0.858,1.605 0.812,1.726 0.747,1.823 0.661,1.897 0.575,1.972 0.469,1.998 0.343,1.975 0.217,1.952 0.068,1.874 -0.104,1.743 -0.274,1.611 -0.418,1.451 -0.532,1.262 -0.647,1.073 -0.698,0.873 -0.687,0.661 -0.676,0.449 -0.55,0.251 -0.31,0.069 -0.229,0 -0.126,-0.023 0,0 Z" /></g><g
           transform="translate(17.3106,20.3047)"
           id="g52"><path
             id="path54"
             style="fill:#683c10;fill-opacity:1;fill-rule:nonzero;stroke:none"
             d="m 0,0 c -0.372,-0.515 -0.867,-0.973 -1.485,-1.374 0.103,0.436 0.2,0.819 0.292,1.151 0.091,0.332 0.166,0.584 0.223,0.755 0.172,0.492 0.384,0.862 0.636,1.108 0.251,0.246 0.457,0.369 0.618,0.369 0.182,0 0.274,-0.155 0.274,-0.464 C 0.558,1.03 0.372,0.515 0,0 M 1.889,2.258 C 1.872,2.458 1.82,2.644 1.734,2.816 1.648,2.988 1.522,3.131 1.356,3.245 1.19,3.359 0.964,3.417 0.678,3.417 0.289,3.417 -0.054,3.359 -0.352,3.245 -0.649,3.131 -0.921,2.967 -1.167,2.756 -1.414,2.544 -1.637,2.286 -1.837,1.983 -2.038,1.68 -2.229,1.339 -2.412,0.961 -2.584,0.618 -2.736,0.172 -2.867,-0.377 c -0.132,-0.55 -0.266,-1.168 -0.404,-1.855 -0.32,-0.103 -0.644,-0.183 -0.97,-0.24 -0.326,-0.058 -0.661,-0.086 -1.004,-0.086 -0.183,0 -0.372,0.017 -0.567,0.051 -0.16,0.023 -0.334,0.066 -0.523,0.129 -0.189,0.063 -0.364,0.157 -0.524,0.283 -0.08,-0.195 -0.098,-0.372 -0.052,-0.532 0.046,-0.16 0.098,-0.281 0.155,-0.36 0.126,-0.195 0.369,-0.355 0.73,-0.481 0.36,-0.126 0.832,-0.189 1.416,-0.189 0.183,0 0.363,0.006 0.541,0.017 0.177,0.012 0.346,0.035 0.506,0.069 -0.137,-0.687 -0.303,-1.394 -0.498,-2.12 -0.194,-0.728 -0.423,-1.452 -0.686,-2.173 -0.149,-0.377 -0.287,-0.715 -0.412,-1.013 -0.127,-0.297 -0.252,-0.561 -0.378,-0.79 -0.172,0.058 -0.346,0.106 -0.524,0.146 -0.177,0.041 -0.363,0.061 -0.558,0.061 -0.527,0 -0.955,-0.061 -1.288,-0.181 -0.331,-0.12 -0.592,-0.266 -0.781,-0.438 -0.188,-0.171 -0.317,-0.352 -0.386,-0.54 -0.069,-0.189 -0.109,-0.352 -0.12,-0.49 -0.023,-0.377 0.086,-0.678 0.326,-0.901 0.241,-0.223 0.561,-0.335 0.961,-0.335 0.504,0 0.962,0.103 1.374,0.309 0.412,0.206 0.79,0.475 1.133,0.807 0.252,-0.172 0.524,-0.357 0.816,-0.558 0.292,-0.2 0.604,-0.386 0.936,-0.558 0.332,-0.172 0.687,-0.318 1.064,-0.438 0.378,-0.12 0.784,-0.18 1.219,-0.18 0.412,0 0.756,0.103 1.031,0.309 0.274,0.206 0.486,0.446 0.635,0.721 0.148,0.275 0.237,0.55 0.266,0.824 0.028,0.275 0.002,0.481 -0.077,0.618 -0.218,-0.24 -0.453,-0.426 -0.704,-0.558 -0.252,-0.131 -0.493,-0.225 -0.722,-0.283 -0.263,-0.069 -0.532,-0.108 -0.807,-0.12 -0.263,0 -0.512,0.04 -0.746,0.12 -0.235,0.08 -0.467,0.18 -0.696,0.301 -0.229,0.12 -0.455,0.255 -0.678,0.403 -0.223,0.149 -0.444,0.292 -0.661,0.429 0.355,0.504 0.655,1.031 0.901,1.58 0.247,0.549 0.449,1.047 0.61,1.494 0.183,0.48 0.369,1.09 0.558,1.828 0.189,0.738 0.38,1.485 0.575,2.241 0.572,0.251 1.09,0.572 1.554,0.961 0.464,0.389 0.861,0.802 1.193,1.237 0.332,0.435 0.59,0.875 0.773,1.322 0.183,0.446 0.275,0.858 0.275,1.236 0,0.172 -0.009,0.358 -0.026,0.558" /></g><g
           transform="translate(17.3106,20.3047)"
           id="g56"><path
             id="path58"
             style="fill:none;stroke:#683c10;stroke-width:0.30000001;stroke-linecap:butt;stroke-linejoin:miter;stroke-miterlimit:10;stroke-dasharray:none;stroke-opacity:1"
             d="m 0,0 c -0.372,-0.515 -0.867,-0.973 -1.485,-1.374 0.103,0.436 0.2,0.819 0.292,1.151 0.091,0.332 0.166,0.584 0.223,0.755 0.172,0.492 0.384,0.862 0.636,1.108 0.251,0.246 0.457,0.369 0.618,0.369 0.182,0 0.274,-0.155 0.274,-0.464 C 0.558,1.03 0.372,0.515 0,0 Z M 1.889,2.258 C 1.872,2.458 1.82,2.644 1.734,2.816 1.648,2.988 1.522,3.131 1.356,3.245 1.19,3.359 0.964,3.417 0.678,3.417 0.289,3.417 -0.054,3.359 -0.352,3.245 -0.649,3.131 -0.921,2.967 -1.167,2.756 -1.414,2.544 -1.637,2.286 -1.837,1.983 -2.038,1.68 -2.229,1.339 -2.412,0.961 -2.584,0.618 -2.736,0.172 -2.867,-0.377 c -0.132,-0.55 -0.266,-1.168 -0.404,-1.855 -0.32,-0.103 -0.644,-0.183 -0.97,-0.24 -0.326,-0.058 -0.661,-0.086 -1.004,-0.086 -0.183,0 -0.372,0.017 -0.567,0.051 -0.16,0.023 -0.334,0.066 -0.523,0.129 -0.189,0.063 -0.364,0.157 -0.524,0.283 -0.08,-0.195 -0.098,-0.372 -0.052,-0.532 0.046,-0.16 0.098,-0.281 0.155,-0.36 0.126,-0.195 0.369,-0.355 0.73,-0.481 0.36,-0.126 0.832,-0.189 1.416,-0.189 0.183,0 0.363,0.006 0.541,0.017 0.177,0.012 0.346,0.035 0.506,0.069 -0.137,-0.687 -0.303,-1.394 -0.498,-2.12 -0.194,-0.728 -0.423,-1.452 -0.686,-2.173 -0.149,-0.377 -0.287,-0.715 -0.412,-1.013 -0.127,-0.297 -0.252,-0.561 -0.378,-0.79 -0.172,0.058 -0.346,0.106 -0.524,0.146 -0.177,0.041 -0.363,0.061 -0.558,0.061 -0.527,0 -0.955,-0.061 -1.288,-0.181 -0.331,-0.12 -0.592,-0.266 -0.781,-0.438 -0.188,-0.171 -0.317,-0.352 -0.386,-0.54 -0.069,-0.189 -0.109,-0.352 -0.12,-0.49 -0.023,-0.377 0.086,-0.678 0.326,-0.901 0.241,-0.223 0.561,-0.335 0.961,-0.335 0.504,0 0.962,0.103 1.374,0.309 0.412,0.206 0.79,0.475 1.133,0.807 0.252,-0.172 0.524,-0.357 0.816,-0.558 0.292,-0.2 0.604,-0.386 0.936,-0.558 0.332,-0.172 0.687,-0.318 1.064,-0.438 0.378,-0.12 0.784,-0.18 1.219,-0.18 0.412,0 0.756,0.103 1.031,0.309 0.274,0.206 0.486,0.446 0.635,0.721 0.148,0.275 0.237,0.55 0.266,0.824 0.028,0.275 0.002,0.481 -0.077,0.618 -0.218,-0.24 -0.453,-0.426 -0.704,-0.558 -0.252,-0.131 -0.493,-0.225 -0.722,-0.283 -0.263,-0.069 -0.532,-0.108 -0.807,-0.12 -0.263,0 -0.512,0.04 -0.746,0.12 -0.235,0.08 -0.467,0.18 -0.696,0.301 -0.229,0.12 -0.455,0.255 -0.678,0.403 -0.223,0.149 -0.444,0.292 -0.661,0.429 0.355,0.504 0.655,1.031 0.901,1.58 0.247,0.549 0.449,1.047 0.61,1.494 0.183,0.48 0.369,1.09 0.558,1.828 0.189,0.738 0.38,1.485 0.575,2.241 0.572,0.251 1.09,0.572 1.554,0.961 0.464,0.389 0.861,0.802 1.193,1.237 0.332,0.435 0.59,0.875 0.773,1.322 0.183,0.446 0.275,0.858 0.275,1.236 0,0.172 -0.009,0.358 -0.026,0.558 z" /></g><g
           transform="translate(38.1036,19.4292)"
           id="g60"><path
             id="path62"
             style="fill:#683c10;fill-opacity:1;fill-rule:nonzero;stroke:none"
             d="m 0,0 c -0.143,-0.389 -0.326,-0.77 -0.549,-1.142 -0.223,-0.372 -0.484,-0.721 -0.782,-1.047 -0.297,-0.327 -0.606,-0.593 -0.927,-0.799 -0.138,0.023 -0.281,0.043 -0.429,0.061 -0.149,0.017 -0.304,0.025 -0.464,0.025 -0.298,0 -0.609,-0.063 -0.935,-0.189 -0.327,-0.126 -0.559,-0.263 -0.696,-0.411 0.034,0.125 0.066,0.245 0.095,0.36 0.028,0.114 0.054,0.228 0.077,0.343 0.149,0.595 0.309,1.185 0.481,1.769 0.171,0.584 0.334,1.138 0.489,1.665 0.155,0.527 0.3,1.011 0.438,1.451 0.137,0.44 0.251,0.81 0.343,1.107 0.446,0.149 0.876,0.224 1.288,0.224 0.618,0 1.096,-0.192 1.434,-0.575 C 0.2,2.458 0.335,1.872 0.266,1.082 0.232,0.75 0.143,0.389 0,0 m -1.013,-4.937 c 0.12,-0.2 0.212,-0.423 0.275,-0.669 0.063,-0.246 0.083,-0.524 0.06,-0.833 -0.057,-0.686 -0.238,-1.308 -0.541,-1.863 -0.303,-0.555 -0.678,-1.027 -1.125,-1.416 -0.446,-0.389 -0.936,-0.69 -1.468,-0.902 -0.532,-0.211 -1.056,-0.317 -1.571,-0.317 -0.149,0 -0.286,0.011 -0.412,0.034 -0.115,0.023 -0.229,0.046 -0.343,0.069 -0.115,0.023 -0.206,0.063 -0.275,0.12 0.194,0.927 0.378,1.8 0.549,2.618 0.172,0.819 0.332,1.537 0.481,2.155 0.16,0.721 0.321,1.391 0.481,2.009 0.011,-0.103 0.046,-0.212 0.103,-0.326 0.057,-0.115 0.137,-0.215 0.24,-0.301 0.103,-0.086 0.229,-0.149 0.378,-0.189 0.149,-0.04 0.326,-0.031 0.533,0.026 0.628,0.195 1.207,0.435 1.733,0.722 0.172,-0.115 0.335,-0.25 0.49,-0.404 0.154,-0.155 0.292,-0.332 0.412,-0.533 M 1.949,2.335 C 1.812,2.724 1.585,3.065 1.271,3.356 0.956,3.648 0.552,3.88 0.06,4.052 -0.432,4.224 -1.01,4.31 -1.674,4.31 -1.834,4.31 -1.989,4.304 -2.138,4.292 -2.287,4.281 -2.441,4.264 -2.602,4.241 c -0.08,0.103 -0.246,0.183 -0.497,0.24 -0.115,0.023 -0.223,0.04 -0.326,0.052 -0.103,0.011 -0.201,0 -0.292,-0.034 C -3.809,4.464 -3.897,4.396 -3.983,4.292 -4.069,4.189 -4.146,4.041 -4.215,3.846 -4.547,3.72 -4.894,3.577 -5.254,3.417 -5.615,3.256 -5.984,3.062 -6.361,2.833 -6.43,2.707 -6.473,2.578 -6.49,2.447 -6.507,2.315 -6.51,2.198 -6.499,2.095 c 0.011,-0.126 0.028,-0.247 0.052,-0.361 0.068,-0.229 0.185,-0.369 0.352,-0.421 0.165,-0.051 0.334,0.003 0.506,0.164 0.16,0.148 0.318,0.286 0.472,0.412 0.155,0.125 0.312,0.246 0.472,0.36 C -4.736,1.917 -4.879,1.405 -5.074,0.712 -5.269,0.02 -5.486,-0.755 -5.726,-1.614 -5.967,-2.473 -6.216,-3.36 -6.473,-4.275 -6.73,-5.191 -6.968,-6.041 -7.186,-6.825 -7.403,-7.609 -7.589,-8.273 -7.744,-8.817 -7.898,-9.36 -7.987,-9.684 -8.01,-9.787 c -0.046,-0.171 -0.083,-0.306 -0.112,-0.403 -0.028,-0.098 -0.048,-0.175 -0.06,-0.232 -0.011,-0.057 -0.017,-0.112 -0.017,-0.163 0,-0.052 0.006,-0.123 0.017,-0.215 0.012,-0.16 0.049,-0.283 0.112,-0.369 0.063,-0.086 0.146,-0.157 0.249,-0.215 0.057,-0.034 0.157,-0.077 0.3,-0.128 0.144,-0.052 0.318,-0.106 0.524,-0.164 0.206,-0.057 0.438,-0.105 0.696,-0.145 0.257,-0.04 0.534,-0.06 0.832,-0.06 0.802,0 1.58,0.109 2.335,0.326 0.756,0.217 1.434,0.535 2.035,0.952 0.601,0.418 1.096,0.931 1.485,1.537 0.389,0.607 0.618,1.294 0.687,2.061 0.023,0.309 -0.006,0.629 -0.086,0.961 -0.08,0.332 -0.212,0.658 -0.395,0.979 -0.183,0.32 -0.412,0.618 -0.686,0.893 -0.275,0.275 -0.59,0.515 -0.945,0.721 0.447,0.309 0.853,0.649 1.219,1.021 0.366,0.372 0.687,0.756 0.962,1.151 0.275,0.395 0.495,0.795 0.661,1.202 0.166,0.406 0.266,0.798 0.301,1.176 0.034,0.435 -0.018,0.847 -0.155,1.236" /></g><g
           transform="translate(38.1036,19.4292)"
           id="g64"><path
             id="path66"
             style="fill:none;stroke:#683c10;stroke-width:0.30000001;stroke-linecap:butt;stroke-linejoin:miter;stroke-miterlimit:10;stroke-dasharray:none;stroke-opacity:1"
             d="m 0,0 c -0.143,-0.389 -0.326,-0.77 -0.549,-1.142 -0.223,-0.372 -0.484,-0.721 -0.782,-1.047 -0.297,-0.327 -0.606,-0.593 -0.927,-0.799 -0.138,0.023 -0.281,0.043 -0.429,0.061 -0.149,0.017 -0.304,0.025 -0.464,0.025 -0.298,0 -0.609,-0.063 -0.935,-0.189 -0.327,-0.126 -0.559,-0.263 -0.696,-0.411 0.034,0.125 0.066,0.245 0.095,0.36 0.028,0.114 0.054,0.228 0.077,0.343 0.149,0.595 0.309,1.185 0.481,1.769 0.171,0.584 0.334,1.138 0.489,1.665 0.155,0.527 0.3,1.011 0.438,1.451 0.137,0.44 0.251,0.81 0.343,1.107 0.446,0.149 0.876,0.224 1.288,0.224 0.618,0 1.096,-0.192 1.434,-0.575 C 0.2,2.458 0.335,1.872 0.266,1.082 0.232,0.75 0.143,0.389 0,0 Z m -1.013,-4.937 c 0.12,-0.2 0.212,-0.423 0.275,-0.669 0.063,-0.246 0.083,-0.524 0.06,-0.833 -0.057,-0.686 -0.238,-1.308 -0.541,-1.863 -0.303,-0.555 -0.678,-1.027 -1.125,-1.416 -0.446,-0.389 -0.936,-0.69 -1.468,-0.902 -0.532,-0.211 -1.056,-0.317 -1.571,-0.317 -0.149,0 -0.286,0.011 -0.412,0.034 -0.115,0.023 -0.229,0.046 -0.343,0.069 -0.115,0.023 -0.206,0.063 -0.275,0.12 0.194,0.927 0.378,1.8 0.549,2.618 0.172,0.819 0.332,1.537 0.481,2.155 0.16,0.721 0.321,1.391 0.481,2.009 0.011,-0.103 0.046,-0.212 0.103,-0.326 0.057,-0.115 0.137,-0.215 0.24,-0.301 0.103,-0.086 0.229,-0.149 0.378,-0.189 0.149,-0.04 0.326,-0.031 0.533,0.026 0.628,0.195 1.207,0.435 1.733,0.722 0.172,-0.115 0.335,-0.25 0.49,-0.404 0.154,-0.155 0.292,-0.332 0.412,-0.533 z M 1.949,2.335 C 1.812,2.724 1.585,3.065 1.271,3.356 0.956,3.648 0.552,3.88 0.06,4.052 -0.432,4.224 -1.01,4.31 -1.674,4.31 -1.834,4.31 -1.989,4.304 -2.138,4.292 -2.287,4.281 -2.441,4.264 -2.602,4.241 c -0.08,0.103 -0.246,0.183 -0.497,0.24 -0.115,0.023 -0.223,0.04 -0.326,0.052 -0.103,0.011 -0.201,0 -0.292,-0.034 C -3.809,4.464 -3.897,4.396 -3.983,4.292 -4.069,4.189 -4.146,4.041 -4.215,3.846 -4.547,3.72 -4.894,3.577 -5.254,3.417 -5.615,3.256 -5.984,3.062 -6.361,2.833 -6.43,2.707 -6.473,2.578 -6.49,2.447 -6.507,2.315 -6.51,2.198 -6.499,2.095 c 0.011,-0.126 0.028,-0.247 0.052,-0.361 0.068,-0.229 0.185,-0.369 0.352,-0.421 0.165,-0.051 0.334,0.003 0.506,0.164 0.16,0.148 0.318,0.286 0.472,0.412 0.155,0.125 0.312,0.246 0.472,0.36 C -4.736,1.917 -4.879,1.405 -5.074,0.712 -5.269,0.02 -5.486,-0.755 -5.726,-1.614 -5.967,-2.473 -6.216,-3.36 -6.473,-4.275 -6.73,-5.191 -6.968,-6.041 -7.186,-6.825 -7.403,-7.609 -7.589,-8.273 -7.744,-8.817 -7.898,-9.36 -7.987,-9.684 -8.01,-9.787 c -0.046,-0.171 -0.083,-0.306 -0.112,-0.403 -0.028,-0.098 -0.048,-0.175 -0.06,-0.232 -0.011,-0.057 -0.017,-0.112 -0.017,-0.163 0,-0.052 0.006,-0.123 0.017,-0.215 0.012,-0.16 0.049,-0.283 0.112,-0.369 0.063,-0.086 0.146,-0.157 0.249,-0.215 0.057,-0.034 0.157,-0.077 0.3,-0.128 0.144,-0.052 0.318,-0.106 0.524,-0.164 0.206,-0.057 0.438,-0.105 0.696,-0.145 0.257,-0.04 0.534,-0.06 0.832,-0.06 0.802,0 1.58,0.109 2.335,0.326 0.756,0.217 1.434,0.535 2.035,0.952 0.601,0.418 1.096,0.931 1.485,1.537 0.389,0.607 0.618,1.294 0.687,2.061 0.023,0.309 -0.006,0.629 -0.086,0.961 -0.08,0.332 -0.212,0.658 -0.395,0.979 -0.183,0.32 -0.412,0.618 -0.686,0.893 -0.275,0.275 -0.59,0.515 -0.945,0.721 0.447,0.309 0.853,0.649 1.219,1.021 0.366,0.372 0.687,0.756 0.962,1.151 0.275,0.395 0.495,0.795 0.661,1.202 0.166,0.406 0.266,0.798 0.301,1.176 0.034,0.435 -0.018,0.847 -0.155,1.236 z" /></g><g
           transform="translate(78.7525,14.5713)"
           id="g68"><path
             id="path70"
             style="fill:#683c10;fill-opacity:1;fill-rule:nonzero;stroke:none"
             d="m 0,0 c -0.04,-0.218 -0.083,-0.435 -0.128,-0.652 -0.126,-0.161 -0.29,-0.361 -0.489,-0.601 -0.201,-0.241 -0.418,-0.476 -0.654,-0.705 -0.234,-0.229 -0.474,-0.423 -0.72,-0.583 -0.246,-0.161 -0.473,-0.241 -0.678,-0.241 -0.275,0 -0.493,0.12 -0.653,0.361 -0.16,0.24 -0.229,0.635 -0.206,1.185 0.023,0.343 0.114,0.732 0.275,1.167 0.16,0.435 0.36,0.844 0.601,1.228 0.24,0.383 0.498,0.71 0.772,0.979 0.276,0.268 0.544,0.403 0.808,0.403 0.182,0 0.326,-0.072 0.428,-0.215 C -0.54,2.183 -0.463,2.017 -0.411,1.829 -0.36,1.64 -0.329,1.457 -0.317,1.279 -0.306,1.102 -0.3,0.979 -0.3,0.91 -0.3,0.772 -0.277,0.672 -0.231,0.609 -0.186,0.546 -0.1,0.543 0.026,0.601 0.049,0.612 0.069,0.624 0.086,0.635 0.104,0.646 0.123,0.658 0.146,0.669 0.089,0.44 0.04,0.217 0,0 M 13.539,0.712 C 13.493,0.752 13.433,0.761 13.358,0.738 13.284,0.715 13.207,0.652 13.127,0.549 13.093,0.503 13.007,0.386 12.869,0.197 12.732,0.008 12.565,-0.212 12.371,-0.464 12.177,-0.716 11.962,-0.982 11.728,-1.262 11.493,-1.543 11.258,-1.8 11.023,-2.035 10.789,-2.27 10.563,-2.464 10.346,-2.619 10.128,-2.773 9.938,-2.851 9.778,-2.851 c -0.091,0 -0.174,0.02 -0.248,0.061 -0.075,0.04 -0.137,0.114 -0.189,0.223 -0.052,0.109 -0.095,0.266 -0.129,0.472 -0.034,0.206 -0.063,0.481 -0.086,0.824 0.058,0.08 0.12,0.169 0.189,0.267 0.069,0.096 0.137,0.223 0.206,0.377 0.069,0.155 0.14,0.344 0.214,0.567 0.076,0.223 0.153,0.495 0.233,0.815 0.114,0.39 0.182,0.767 0.206,1.134 0.022,0.366 0.034,0.64 0.034,0.824 0,0.103 -0.068,0.171 -0.206,0.206 C 9.956,2.93 9.901,2.938 9.839,2.944 9.775,2.95 9.698,2.947 9.607,2.936 9.378,2.924 9.212,2.887 9.109,2.824 9.006,2.761 8.892,2.592 8.766,2.318 8.697,2.181 8.614,1.992 8.517,1.751 8.419,1.511 8.328,1.239 8.242,0.936 8.156,0.632 8.082,0.306 8.019,-0.043 7.956,-0.393 7.925,-0.75 7.925,-1.116 7.925,-1.311 7.941,-1.5 7.976,-1.683 7.747,-2.038 7.495,-2.327 7.221,-2.55 6.945,-2.773 6.659,-2.885 6.362,-2.885 c -0.458,0 -0.761,0.132 -0.91,0.395 -0.149,0.263 -0.195,0.653 -0.138,1.168 0.023,0.229 0.086,0.532 0.19,0.91 C 5.595,-0.08 5.729,0.349 5.907,0.875 6.084,1.402 6.327,2.06 6.637,2.85 6.545,2.884 6.445,2.901 6.336,2.901 6.228,2.901 6.121,2.896 6.019,2.884 5.893,2.861 5.772,2.838 5.658,2.816 5.36,2.724 5.128,2.555 4.963,2.309 4.797,2.063 4.662,1.774 4.56,1.442 4.536,1.385 4.493,1.242 4.431,1.013 4.367,0.784 4.296,0.506 4.216,0.18 4.162,-0.036 4.116,-0.27 4.073,-0.511 4.054,-0.533 4.038,-0.552 4.019,-0.575 3.795,-0.833 3.552,-1.105 3.288,-1.391 3.025,-1.677 2.762,-1.94 2.499,-2.181 2.235,-2.421 1.986,-2.622 1.752,-2.782 c -0.234,-0.16 -0.433,-0.24 -0.593,-0.24 -0.137,0 -0.263,0.063 -0.378,0.189 -0.114,0.125 -0.166,0.332 -0.154,0.618 0.012,0.194 0.043,0.452 0.095,0.773 0.051,0.32 0.105,0.658 0.163,1.013 0.378,0.572 0.729,1.176 1.055,1.811 0.327,0.635 0.616,1.271 0.868,1.906 0.252,0.635 0.455,1.25 0.609,1.846 0.155,0.595 0.243,1.144 0.267,1.648 0.022,0.412 0.022,0.738 0,0.979 C 3.66,8.001 3.617,8.181 3.555,8.301 3.491,8.422 3.414,8.496 3.323,8.525 3.231,8.553 3.128,8.568 3.014,8.568 2.922,8.568 2.825,8.55 2.722,8.516 2.63,8.493 2.533,8.458 2.43,8.413 2.327,8.367 2.218,8.298 2.104,8.207 1.921,7.6 1.755,7.022 1.605,6.473 1.457,5.923 1.325,5.437 1.211,5.014 1.085,4.521 0.965,4.063 0.851,3.64 0.781,3.354 0.713,3.05 0.645,2.73 0.575,2.409 0.501,2.083 0.421,1.751 0.387,1.911 0.332,2.083 0.258,2.266 0.184,2.449 0.089,2.618 -0.025,2.773 -0.14,2.927 -0.277,3.053 -0.437,3.15 -0.598,3.248 -0.775,3.296 -0.97,3.296 -1.416,3.296 -1.859,3.167 -2.301,2.91 -2.741,2.653 -3.136,2.303 -3.485,1.863 -3.834,1.422 -4.123,0.904 -4.353,0.309 c -0.228,-0.596 -0.36,-1.225 -0.394,-1.889 -0.023,-0.423 0.012,-0.784 0.103,-1.082 0.091,-0.297 0.208,-0.538 0.352,-0.721 0.143,-0.183 0.307,-0.315 0.489,-0.394 0.183,-0.08 0.355,-0.12 0.516,-0.12 0.446,0 0.912,0.157 1.398,0.471 0.488,0.315 0.971,0.741 1.452,1.28 -0.023,-0.195 -0.041,-0.333 -0.052,-0.413 -0.011,-0.183 0.014,-0.366 0.078,-0.549 0.062,-0.183 0.151,-0.349 0.265,-0.498 0.115,-0.148 0.244,-0.269 0.387,-0.36 0.143,-0.092 0.294,-0.138 0.455,-0.138 0.217,0 0.46,0.072 0.73,0.215 0.268,0.143 0.549,0.329 0.841,0.558 0.292,0.229 0.584,0.492 0.876,0.79 0.277,0.283 0.541,0.572 0.793,0.865 -0.004,-0.1 -0.012,-0.202 -0.012,-0.299 0,-0.194 0.031,-0.409 0.095,-0.644 0.062,-0.235 0.17,-0.452 0.326,-0.652 0.154,-0.2 0.369,-0.369 0.643,-0.506 0.275,-0.138 0.63,-0.206 1.065,-0.206 0.434,0 0.83,0.111 1.184,0.334 0.355,0.223 0.664,0.541 0.928,0.953 0.126,-0.401 0.277,-0.707 0.455,-0.918 0.177,-0.212 0.42,-0.318 0.73,-0.318 0.343,0 0.709,0.138 1.098,0.412 0.389,0.275 0.776,0.618 1.159,1.03 0.383,0.412 0.745,0.862 1.082,1.348 0.337,0.487 0.621,0.947 0.85,1.382 0.057,0.103 0.083,0.197 0.077,0.283 -0.006,0.086 -0.031,0.149 -0.077,0.189" /></g><g
           transform="translate(78.7525,14.5713)"
           id="g72"><path
             id="path74"
             style="fill:none;stroke:#683c10;stroke-width:0.30000001;stroke-linecap:butt;stroke-linejoin:miter;stroke-miterlimit:10;stroke-dasharray:none;stroke-opacity:1"
             d="m 0,0 c -0.04,-0.218 -0.083,-0.435 -0.128,-0.652 -0.126,-0.161 -0.29,-0.361 -0.489,-0.601 -0.201,-0.241 -0.418,-0.476 -0.654,-0.705 -0.234,-0.229 -0.474,-0.423 -0.72,-0.583 -0.246,-0.161 -0.473,-0.241 -0.678,-0.241 -0.275,0 -0.493,0.12 -0.653,0.361 -0.16,0.24 -0.229,0.635 -0.206,1.185 0.023,0.343 0.114,0.732 0.275,1.167 0.16,0.435 0.36,0.844 0.601,1.228 0.24,0.383 0.498,0.71 0.772,0.979 0.276,0.268 0.544,0.403 0.808,0.403 0.182,0 0.326,-0.072 0.428,-0.215 C -0.54,2.183 -0.463,2.017 -0.411,1.829 -0.36,1.64 -0.329,1.457 -0.317,1.279 -0.306,1.102 -0.3,0.979 -0.3,0.91 -0.3,0.772 -0.277,0.672 -0.231,0.609 -0.186,0.546 -0.1,0.543 0.026,0.601 0.049,0.612 0.069,0.624 0.086,0.635 0.104,0.646 0.123,0.658 0.146,0.669 0.089,0.44 0.04,0.217 0,0 Z M 13.539,0.712 C 13.493,0.752 13.433,0.761 13.358,0.738 13.284,0.715 13.207,0.652 13.127,0.549 13.093,0.503 13.007,0.386 12.869,0.197 12.732,0.008 12.565,-0.212 12.371,-0.464 12.177,-0.716 11.962,-0.982 11.728,-1.262 11.493,-1.543 11.258,-1.8 11.023,-2.035 10.789,-2.27 10.563,-2.464 10.346,-2.619 10.128,-2.773 9.938,-2.851 9.778,-2.851 c -0.091,0 -0.174,0.02 -0.248,0.061 -0.075,0.04 -0.137,0.114 -0.189,0.223 -0.052,0.109 -0.095,0.266 -0.129,0.472 -0.034,0.206 -0.063,0.481 -0.086,0.824 0.058,0.08 0.12,0.169 0.189,0.267 0.069,0.096 0.137,0.223 0.206,0.377 0.069,0.155 0.14,0.344 0.214,0.567 0.076,0.223 0.153,0.495 0.233,0.815 0.114,0.39 0.182,0.767 0.206,1.134 0.022,0.366 0.034,0.64 0.034,0.824 0,0.103 -0.068,0.171 -0.206,0.206 C 9.956,2.93 9.901,2.938 9.839,2.944 9.775,2.95 9.698,2.947 9.607,2.936 9.378,2.924 9.212,2.887 9.109,2.824 9.006,2.761 8.892,2.592 8.766,2.318 8.697,2.181 8.614,1.992 8.517,1.751 8.419,1.511 8.328,1.239 8.242,0.936 8.156,0.632 8.082,0.306 8.019,-0.043 7.956,-0.393 7.925,-0.75 7.925,-1.116 7.925,-1.311 7.941,-1.5 7.976,-1.683 7.747,-2.038 7.495,-2.327 7.221,-2.55 6.945,-2.773 6.659,-2.885 6.362,-2.885 c -0.458,0 -0.761,0.132 -0.91,0.395 -0.149,0.263 -0.195,0.653 -0.138,1.168 0.023,0.229 0.086,0.532 0.19,0.91 C 5.595,-0.08 5.729,0.349 5.907,0.875 6.084,1.402 6.327,2.06 6.637,2.85 6.545,2.884 6.445,2.901 6.336,2.901 6.228,2.901 6.121,2.896 6.019,2.884 5.893,2.861 5.772,2.838 5.658,2.816 5.36,2.724 5.128,2.555 4.963,2.309 4.797,2.063 4.662,1.774 4.56,1.442 4.536,1.385 4.493,1.242 4.431,1.013 4.367,0.784 4.296,0.506 4.216,0.18 4.162,-0.036 4.116,-0.27 4.073,-0.511 4.054,-0.533 4.038,-0.552 4.019,-0.575 3.795,-0.833 3.552,-1.105 3.288,-1.391 3.025,-1.677 2.762,-1.94 2.499,-2.181 2.235,-2.421 1.986,-2.622 1.752,-2.782 c -0.234,-0.16 -0.433,-0.24 -0.593,-0.24 -0.137,0 -0.263,0.063 -0.378,0.189 -0.114,0.125 -0.166,0.332 -0.154,0.618 0.012,0.194 0.043,0.452 0.095,0.773 0.051,0.32 0.105,0.658 0.163,1.013 0.378,0.572 0.729,1.176 1.055,1.811 0.327,0.635 0.616,1.271 0.868,1.906 0.252,0.635 0.455,1.25 0.609,1.846 0.155,0.595 0.243,1.144 0.267,1.648 0.022,0.412 0.022,0.738 0,0.979 C 3.66,8.001 3.617,8.181 3.555,8.301 3.491,8.422 3.414,8.496 3.323,8.525 3.231,8.553 3.128,8.568 3.014,8.568 2.922,8.568 2.825,8.55 2.722,8.516 2.63,8.493 2.533,8.458 2.43,8.413 2.327,8.367 2.218,8.298 2.104,8.207 1.921,7.6 1.755,7.022 1.605,6.473 1.457,5.923 1.325,5.437 1.211,5.014 1.085,4.521 0.965,4.063 0.851,3.64 0.781,3.354 0.713,3.05 0.645,2.73 0.575,2.409 0.501,2.083 0.421,1.751 0.387,1.911 0.332,2.083 0.258,2.266 0.184,2.449 0.089,2.618 -0.025,2.773 -0.14,2.927 -0.277,3.053 -0.437,3.15 -0.598,3.248 -0.775,3.296 -0.97,3.296 -1.416,3.296 -1.859,3.167 -2.301,2.91 -2.741,2.653 -3.136,2.303 -3.485,1.863 -3.834,1.422 -4.123,0.904 -4.353,0.309 c -0.228,-0.596 -0.36,-1.225 -0.394,-1.889 -0.023,-0.423 0.012,-0.784 0.103,-1.082 0.091,-0.297 0.208,-0.538 0.352,-0.721 0.143,-0.183 0.307,-0.315 0.489,-0.394 0.183,-0.08 0.355,-0.12 0.516,-0.12 0.446,0 0.912,0.157 1.398,0.471 0.488,0.315 0.971,0.741 1.452,1.28 -0.023,-0.195 -0.041,-0.333 -0.052,-0.413 -0.011,-0.183 0.014,-0.366 0.078,-0.549 0.062,-0.183 0.151,-0.349 0.265,-0.498 0.115,-0.148 0.244,-0.269 0.387,-0.36 0.143,-0.092 0.294,-0.138 0.455,-0.138 0.217,0 0.46,0.072 0.73,0.215 0.268,0.143 0.549,0.329 0.841,0.558 0.292,0.229 0.584,0.492 0.876,0.79 0.277,0.283 0.541,0.572 0.793,0.865 -0.004,-0.1 -0.012,-0.202 -0.012,-0.299 0,-0.194 0.031,-0.409 0.095,-0.644 0.062,-0.235 0.17,-0.452 0.326,-0.652 0.154,-0.2 0.369,-0.369 0.643,-0.506 0.275,-0.138 0.63,-0.206 1.065,-0.206 0.434,0 0.83,0.111 1.184,0.334 0.355,0.223 0.664,0.541 0.928,0.953 0.126,-0.401 0.277,-0.707 0.455,-0.918 0.177,-0.212 0.42,-0.318 0.73,-0.318 0.343,0 0.709,0.138 1.098,0.412 0.389,0.275 0.776,0.618 1.159,1.03 0.383,0.412 0.745,0.862 1.082,1.348 0.337,0.487 0.621,0.947 0.85,1.382 0.057,0.103 0.083,0.197 0.077,0.283 -0.006,0.086 -0.031,0.149 -0.077,0.189 z" /></g><g
           transform="translate(152.6949,20.5806)"
           id="g76"><path
             id="path78"
             style="fill:#683c10;fill-opacity:1;fill-rule:nonzero;stroke:none"
             d="m 0,0 c 0.012,0.4 -0.023,0.795 -0.104,1.185 -0.08,0.389 -0.219,0.738 -0.419,1.047 -0.201,0.309 -0.464,0.558 -0.79,0.747 -0.327,0.189 -0.724,0.283 -1.194,0.283 -0.766,0 -1.471,-0.174 -2.112,-0.523 -0.641,-0.35 -1.225,-0.81 -1.751,-1.383 -0.526,-0.572 -0.993,-1.233 -1.4,-1.982 -0.406,-0.75 -0.752,-1.529 -1.039,-2.336 -0.286,-0.807 -0.505,-1.611 -0.66,-2.412 -0.155,-0.801 -0.244,-1.545 -0.266,-2.232 -0.023,-0.733 0.048,-1.423 0.214,-2.069 0.167,-0.647 0.413,-1.211 0.739,-1.691 0.326,-0.481 0.72,-0.859 1.184,-1.134 0.464,-0.274 0.982,-0.412 1.554,-0.412 0.458,0 0.893,0.098 1.305,0.292 0.412,0.195 0.793,0.45 1.142,0.764 0.349,0.315 0.663,0.667 0.945,1.056 0.28,0.389 0.517,0.779 0.712,1.168 0.069,0.149 0.091,0.277 0.069,0.386 -0.024,0.109 -0.069,0.189 -0.138,0.241 -0.068,0.051 -0.149,0.06 -0.24,0.025 -0.092,-0.034 -0.178,-0.126 -0.258,-0.274 -0.114,-0.206 -0.277,-0.444 -0.489,-0.713 -0.212,-0.269 -0.464,-0.529 -0.756,-0.782 -0.292,-0.251 -0.615,-0.463 -0.97,-0.635 -0.354,-0.171 -0.732,-0.257 -1.132,-0.257 -0.252,0 -0.504,0.063 -0.756,0.189 -0.252,0.126 -0.479,0.332 -0.679,0.618 -0.2,0.286 -0.355,0.652 -0.463,1.099 -0.109,0.446 -0.152,0.99 -0.129,1.631 0.057,1.419 0.26,2.764 0.61,4.035 0.348,1.27 0.778,2.383 1.288,3.34 0.508,0.955 1.061,1.713 1.656,2.274 0.596,0.561 1.162,0.842 1.7,0.842 0.274,0 0.521,-0.109 0.738,-0.326 C -1.672,1.843 -1.574,1.5 -1.597,1.03 -1.631,0.549 -1.7,0.114 -1.803,-0.275 c -0.092,-0.343 -0.226,-0.672 -0.403,-0.987 -0.178,-0.315 -0.421,-0.535 -0.73,-0.661 0.103,-0.264 0.214,-0.464 0.334,-0.601 0.121,-0.137 0.238,-0.24 0.353,-0.309 0.126,-0.08 0.257,-0.126 0.395,-0.137 0.286,0 0.541,0.083 0.764,0.249 0.223,0.165 0.412,0.388 0.567,0.669 0.154,0.281 0.274,0.598 0.36,0.953 C -0.077,-0.744 -0.023,-0.378 0,0" /></g><g
           transform="translate(152.6949,20.5806)"
           id="g80"><path
             id="path82"
             style="fill:none;stroke:#683c10;stroke-width:0.30000001;stroke-linecap:butt;stroke-linejoin:miter;stroke-miterlimit:10;stroke-dasharray:none;stroke-opacity:1"
             d="m 0,0 c 0.012,0.4 -0.023,0.795 -0.104,1.185 -0.08,0.389 -0.219,0.738 -0.419,1.047 -0.201,0.309 -0.464,0.558 -0.79,0.747 -0.327,0.189 -0.724,0.283 -1.194,0.283 -0.766,0 -1.471,-0.174 -2.112,-0.523 -0.641,-0.35 -1.225,-0.81 -1.751,-1.383 -0.526,-0.572 -0.993,-1.233 -1.4,-1.982 -0.406,-0.75 -0.752,-1.529 -1.039,-2.336 -0.286,-0.807 -0.505,-1.611 -0.66,-2.412 -0.155,-0.801 -0.244,-1.545 -0.266,-2.232 -0.023,-0.733 0.048,-1.423 0.214,-2.069 0.167,-0.647 0.413,-1.211 0.739,-1.691 0.326,-0.481 0.72,-0.859 1.184,-1.134 0.464,-0.274 0.982,-0.412 1.554,-0.412 0.458,0 0.893,0.098 1.305,0.292 0.412,0.195 0.793,0.45 1.142,0.764 0.349,0.315 0.663,0.667 0.945,1.056 0.28,0.389 0.517,0.779 0.712,1.168 0.069,0.149 0.091,0.277 0.069,0.386 -0.024,0.109 -0.069,0.189 -0.138,0.241 -0.068,0.051 -0.149,0.06 -0.24,0.025 -0.092,-0.034 -0.178,-0.126 -0.258,-0.274 -0.114,-0.206 -0.277,-0.444 -0.489,-0.713 -0.212,-0.269 -0.464,-0.529 -0.756,-0.782 -0.292,-0.251 -0.615,-0.463 -0.97,-0.635 -0.354,-0.171 -0.732,-0.257 -1.132,-0.257 -0.252,0 -0.504,0.063 -0.756,0.189 -0.252,0.126 -0.479,0.332 -0.679,0.618 -0.2,0.286 -0.355,0.652 -0.463,1.099 -0.109,0.446 -0.152,0.99 -0.129,1.631 0.057,1.419 0.26,2.764 0.61,4.035 0.348,1.27 0.778,2.383 1.288,3.34 0.508,0.955 1.061,1.713 1.656,2.274 0.596,0.561 1.162,0.842 1.7,0.842 0.274,0 0.521,-0.109 0.738,-0.326 C -1.672,1.843 -1.574,1.5 -1.597,1.03 -1.631,0.549 -1.7,0.114 -1.803,-0.275 c -0.092,-0.343 -0.226,-0.672 -0.403,-0.987 -0.178,-0.315 -0.421,-0.535 -0.73,-0.661 0.103,-0.264 0.214,-0.464 0.334,-0.601 0.121,-0.137 0.238,-0.24 0.353,-0.309 0.126,-0.08 0.257,-0.126 0.395,-0.137 0.286,0 0.541,0.083 0.764,0.249 0.223,0.165 0.412,0.388 0.567,0.669 0.154,0.281 0.274,0.598 0.36,0.953 C -0.077,-0.744 -0.023,-0.378 0,0 Z" /></g><g
           transform="translate(162.6187,15.3355)"
           id="g84"><path
             id="path86"
             style="fill:#683c10;fill-opacity:1;fill-rule:nonzero;stroke:none"
             d="m 0,0 c 0.16,0.372 0.332,0.687 0.516,0.944 0.182,0.258 0.369,0.455 0.557,0.593 0.19,0.137 0.353,0.206 0.489,0.206 0.126,0 0.224,-0.049 0.292,-0.146 C 1.924,1.499 1.946,1.342 1.924,1.125 1.9,0.918 1.792,0.672 1.597,0.386 1.402,0.1 1.059,-0.232 0.567,-0.61 0.406,-0.736 0.246,-0.853 0.086,-0.962 -0.074,-1.071 -0.223,-1.176 -0.36,-1.279 -0.28,-0.799 -0.16,-0.373 0,0 m 31.498,-0.181 c -0.051,0.035 -0.123,0.029 -0.214,-0.017 -0.092,-0.046 -0.189,-0.143 -0.292,-0.292 -0.149,-0.229 -0.367,-0.529 -0.652,-0.901 -0.287,-0.372 -0.59,-0.735 -0.91,-1.09 -0.322,-0.355 -0.639,-0.659 -0.953,-0.91 -0.316,-0.252 -0.576,-0.378 -0.782,-0.378 -0.206,0 -0.317,0.091 -0.335,0.275 -0.016,0.182 0.009,0.4 0.077,0.652 0.126,0.389 0.233,0.747 0.318,1.073 0.086,0.327 0.157,0.61 0.215,0.85 l 0.189,0.755 c 0.103,0.367 0.146,0.705 0.129,1.014 -0.017,0.309 -0.075,0.575 -0.172,0.798 -0.097,0.223 -0.232,0.397 -0.403,0.524 -0.172,0.125 -0.367,0.189 -0.584,0.189 -0.264,0 -0.522,-0.055 -0.773,-0.163 C 26.104,2.088 25.866,1.949 25.644,1.777 25.42,1.605 25.214,1.413 25.025,1.202 24.837,0.99 24.667,0.781 24.519,0.575 c 0.069,0.195 0.126,0.383 0.171,0.567 0.046,0.16 0.092,0.311 0.138,0.455 0.046,0.143 0.086,0.254 0.12,0.334 -0.068,0.057 -0.146,0.1 -0.231,0.129 -0.086,0.028 -0.17,0.049 -0.249,0.06 C 24.376,2.131 24.284,2.137 24.192,2.137 24.09,2.126 23.992,2.103 23.9,2.069 23.809,2.045 23.721,2.014 23.635,1.974 23.549,1.934 23.466,1.88 23.386,1.811 23.271,1.376 23.171,0.976 23.085,0.609 22.999,0.243 22.928,-0.078 22.87,-0.352 22.86,-0.402 22.851,-0.446 22.84,-0.494 22.692,-0.7 22.487,-0.957 22.218,-1.271 c -0.309,-0.36 -0.644,-0.715 -1.004,-1.064 -0.36,-0.35 -0.716,-0.65 -1.065,-0.902 -0.349,-0.252 -0.638,-0.378 -0.867,-0.378 -0.08,0 -0.154,0.026 -0.223,0.078 -0.069,0.051 -0.132,0.146 -0.189,0.283 -0.058,0.114 -0.074,0.28 -0.052,0.498 0.023,0.217 0.066,0.449 0.129,0.695 0.063,0.247 0.135,0.499 0.215,0.756 0.08,0.258 0.149,0.489 0.206,0.695 0.057,0.206 0.143,0.472 0.257,0.798 0.114,0.327 0.224,0.645 0.327,0.954 0.103,0.309 0.189,0.577 0.257,0.807 0.069,0.228 0.098,0.348 0.086,0.36 C 20.272,2.32 20.189,2.323 20.046,2.318 19.902,2.312 19.745,2.294 19.574,2.266 19.402,2.237 19.236,2.2 19.076,2.155 18.916,2.109 18.807,2.052 18.75,1.983 18.566,1.754 18.403,1.405 18.261,0.936 18.117,0.466 18,-0.029 17.908,-0.55 17.897,-0.61 17.892,-0.669 17.882,-0.729 17.773,-0.875 17.657,-1.034 17.53,-1.211 17.244,-1.611 16.938,-2 16.612,-2.378 c -0.326,-0.378 -0.661,-0.704 -1.005,-0.979 -0.342,-0.275 -0.658,-0.412 -0.944,-0.412 -0.366,0 -0.486,0.286 -0.36,0.858 l 0.584,2.318 c 0.068,0.309 0.117,0.63 0.145,0.962 0.029,0.332 0.012,0.641 -0.051,0.927 C 14.918,1.582 14.804,1.817 14.638,2 14.472,2.183 14.234,2.275 13.925,2.275 13.661,2.275 13.398,2.212 13.136,2.086 12.872,1.96 12.617,1.8 12.371,1.605 12.125,1.41 11.891,1.19 11.667,0.944 11.444,0.698 11.24,0.455 11.058,0.214 11.092,0.489 11.104,0.755 11.092,1.013 11.08,1.271 11.037,1.494 10.963,1.683 10.889,1.871 10.786,2.023 10.654,2.137 10.522,2.252 10.359,2.309 10.165,2.309 9.913,2.309 9.658,2.252 9.4,2.137 9.144,2.023 8.889,1.868 8.637,1.674 8.385,1.479 8.136,1.259 7.89,1.013 7.644,0.767 7.412,0.506 7.194,0.231 7.286,0.586 7.354,0.855 7.4,1.039 7.526,1.668 7.406,1.983 7.04,1.983 6.96,1.983 6.862,1.966 6.748,1.931 6.656,1.908 6.536,1.874 6.388,1.828 6.238,1.783 6.067,1.714 5.872,1.623 5.896,1.542 5.904,1.442 5.898,1.322 5.893,1.202 5.878,1.079 5.855,0.953 5.832,0.815 5.804,0.672 5.77,0.523 L 5.517,-0.524 C 5.292,-0.792 5.014,-1.106 4.679,-1.468 4.33,-1.846 3.952,-2.209 3.546,-2.559 3.14,-2.908 2.725,-3.206 2.301,-3.451 1.878,-3.698 1.471,-3.82 1.082,-3.82 c -0.184,0 -0.363,0.025 -0.541,0.077 -0.178,0.051 -0.335,0.137 -0.472,0.257 -0.137,0.12 -0.252,0.278 -0.343,0.472 -0.092,0.195 -0.144,0.435 -0.155,0.722 0.172,0.125 0.372,0.266 0.601,0.42 0.228,0.155 0.47,0.318 0.722,0.49 0.228,0.16 0.471,0.337 0.729,0.532 0.258,0.194 0.5,0.412 0.73,0.652 0.228,0.24 0.426,0.51 0.592,0.807 0.165,0.298 0.266,0.624 0.3,0.979 C 3.269,1.908 3.183,2.177 2.988,2.395 2.793,2.612 2.479,2.721 2.044,2.721 1.586,2.721 1.131,2.578 0.679,2.292 0.227,2.006 -0.18,1.645 -0.54,1.21 -0.901,0.775 -1.204,0.297 -1.45,-0.224 -1.658,-0.663 -1.79,-1.083 -1.855,-1.485 -1.884,-1.517 -1.91,-1.547 -1.939,-1.58 -2.101,-1.757 -2.266,-1.932 -2.438,-2.104 -2.609,-2.275 -2.764,-2.418 -2.901,-2.533 -3.508,-3.025 -3.963,-3.32 -4.267,-3.417 c -0.302,-0.098 -0.505,-0.055 -0.609,0.129 -0.08,0.137 -0.092,0.297 -0.034,0.48 0.056,0.183 0.138,0.407 0.24,0.67 0.149,0.378 0.277,0.71 0.387,0.996 0.108,0.286 0.197,0.546 0.265,0.781 0.07,0.235 0.123,0.449 0.164,0.644 0.04,0.195 0.06,0.384 0.06,0.567 0.011,0.297 -0.012,0.546 -0.069,0.747 -0.057,0.2 -0.14,0.36 -0.248,0.48 -0.11,0.121 -0.236,0.206 -0.378,0.258 -0.144,0.051 -0.295,0.077 -0.455,0.077 -0.31,0 -0.602,-0.066 -0.876,-0.197 C -6.095,2.083 -6.355,1.917 -6.602,1.717 -6.848,1.517 -7.073,1.296 -7.279,1.056 -7.485,0.815 -7.663,0.581 -7.812,0.352 c 0.251,0.996 0.527,1.931 0.825,2.807 0.297,0.876 0.566,1.777 0.806,2.704 0.057,0.252 0.109,0.487 0.155,0.704 0.022,0.183 0.037,0.361 0.043,0.533 0.005,0.171 -0.026,0.285 -0.095,0.343 C -6.101,7.5 -6.152,7.537 -6.232,7.555 -6.312,7.572 -6.398,7.58 -6.49,7.58 -6.593,7.58 -6.707,7.569 -6.833,7.546 -6.959,7.523 -7.085,7.494 -7.211,7.46 -7.314,7.437 -7.42,7.409 -7.528,7.374 -7.638,7.34 -7.737,7.294 -7.829,7.237 -7.795,7.076 -7.777,6.899 -7.777,6.705 -7.777,6.51 -7.789,6.321 -7.812,6.138 -7.835,5.932 -7.863,5.72 -7.897,5.503 -7.967,5.194 -8.093,4.638 -8.275,3.837 -8.436,3.162 -8.665,2.183 -8.962,0.901 c -0.298,-1.282 -0.704,-2.982 -1.22,-5.099 0.035,-0.126 0.086,-0.226 0.155,-0.301 0.069,-0.074 0.137,-0.134 0.206,-0.18 0.08,-0.046 0.166,-0.08 0.258,-0.103 0.08,-0.011 0.16,-0.017 0.24,-0.017 0.069,0 0.143,0.011 0.223,0.034 0.08,0.023 0.155,0.063 0.223,0.12 0.08,0.332 0.164,0.713 0.249,1.142 0.086,0.429 0.169,0.827 0.249,1.193 0.092,0.435 0.184,0.876 0.275,1.323 0.149,0.24 0.321,0.486 0.515,0.738 0.194,0.251 0.398,0.478 0.61,0.678 0.211,0.2 0.423,0.363 0.635,0.489 0.212,0.126 0.409,0.189 0.592,0.189 0.264,0 0.412,-0.128 0.447,-0.386 0.034,-0.258 0.008,-0.57 -0.078,-0.936 -0.085,-0.367 -0.2,-0.747 -0.343,-1.141 -0.143,-0.395 -0.254,-0.736 -0.335,-1.022 -0.126,-0.458 -0.192,-0.839 -0.197,-1.142 -0.006,-0.303 0.094,-0.587 0.3,-0.85 0.229,-0.297 0.461,-0.446 0.696,-0.446 0.235,0 0.524,0.097 0.866,0.292 0.31,0.171 0.63,0.388 0.962,0.652 0.332,0.263 0.662,0.543 0.988,0.841 0.189,0.174 0.371,0.35 0.547,0.53 0.021,-0.244 0.068,-0.466 0.139,-0.667 0.144,-0.401 0.335,-0.727 0.575,-0.979 0.241,-0.251 0.507,-0.437 0.799,-0.558 0.292,-0.12 0.564,-0.18 0.816,-0.18 0.48,0 0.975,0.114 1.485,0.343 0.509,0.229 1.007,0.53 1.493,0.902 0.487,0.371 0.947,0.795 1.383,1.27 0.137,0.15 0.262,0.305 0.391,0.457 L 4.687,-3.958 C 4.631,-4.21 4.619,-4.398 4.653,-4.524 4.687,-4.65 4.742,-4.733 4.816,-4.773 c 0.075,-0.04 0.155,-0.055 0.241,-0.043 0.086,0.011 0.157,0.028 0.214,0.051 l 0.859,0.378 c 0.022,0.08 0.04,0.166 0.052,0.258 0.01,0.091 0.028,0.177 0.051,0.257 0.023,0.091 0.045,0.183 0.069,0.275 v -0.035 c 0.206,0.939 0.455,1.703 0.747,2.293 0.292,0.589 0.586,1.049 0.884,1.381 0.297,0.333 0.566,0.556 0.807,0.67 0.24,0.115 0.411,0.172 0.515,0.172 0.138,0 0.243,-0.04 0.317,-0.12 C 9.646,0.684 9.685,0.535 9.685,0.317 9.685,0.008 9.642,-0.355 9.556,-0.773 9.47,-1.191 9.369,-1.608 9.255,-2.026 9.141,-2.444 9.023,-2.831 8.903,-3.185 8.783,-3.54 8.699,-3.798 8.654,-3.958 8.563,-4.29 8.551,-4.499 8.619,-4.584 8.688,-4.67 8.837,-4.708 9.066,-4.696 c 0.08,0.011 0.171,0.029 0.275,0.051 0.194,0.035 0.4,0.109 0.618,0.224 0.172,1.03 0.409,1.879 0.713,2.549 0.303,0.67 0.611,1.202 0.927,1.597 0.314,0.395 0.606,0.672 0.876,0.833 0.268,0.16 0.448,0.24 0.54,0.24 0.195,0 0.332,-0.08 0.412,-0.24 0.08,-0.161 0.086,-0.39 0.017,-0.687 -0.057,-0.24 -0.126,-0.515 -0.206,-0.824 -0.08,-0.309 -0.16,-0.627 -0.24,-0.953 -0.08,-0.326 -0.146,-0.644 -0.197,-0.953 -0.052,-0.309 -0.077,-0.584 -0.077,-0.824 0,-0.24 0.039,-0.438 0.12,-0.592 0.079,-0.155 0.185,-0.278 0.317,-0.37 0.131,-0.091 0.275,-0.154 0.429,-0.188 0.155,-0.035 0.312,-0.052 0.473,-0.052 0.48,0 0.944,0.143 1.39,0.429 0.446,0.286 0.867,0.641 1.262,1.065 0.361,0.387 0.692,0.804 1.001,1.244 -0.029,-0.464 -0.029,-0.835 0.004,-1.107 0.01,-0.195 0.068,-0.381 0.172,-0.558 0.102,-0.178 0.231,-0.332 0.385,-0.463 0.155,-0.132 0.327,-0.235 0.516,-0.309 0.188,-0.075 0.38,-0.106 0.575,-0.095 0.24,0.012 0.552,0.16 0.936,0.447 0.383,0.285 0.775,0.632 1.175,1.038 0.349,0.353 0.676,0.722 0.991,1.101 -0.016,-0.061 -0.031,-0.12 -0.046,-0.182 -0.092,-0.367 -0.18,-0.713 -0.266,-1.039 -0.086,-0.326 -0.16,-0.609 -0.223,-0.85 -0.063,-0.24 -0.1,-0.395 -0.112,-0.463 -0.022,-0.103 0.037,-0.155 0.181,-0.155 0.142,0 0.311,0.034 0.506,0.103 0.194,0.069 0.378,0.158 0.55,0.266 0.171,0.109 0.274,0.22 0.308,0.335 0.034,0.16 0.074,0.329 0.12,0.506 0.046,0.178 0.095,0.384 0.147,0.618 0.052,0.235 0.111,0.498 0.179,0.79 0.07,0.292 0.156,0.633 0.258,1.022 0.195,0.286 0.393,0.563 0.593,0.833 0.2,0.268 0.4,0.506 0.601,0.712 0.2,0.206 0.397,0.369 0.592,0.49 0.195,0.12 0.383,0.18 0.567,0.18 0.148,0 0.246,-0.083 0.292,-0.249 C 26.763,0.658 26.773,0.446 26.751,0.188 26.728,-0.069 26.68,-0.355 26.605,-0.67 26.53,-0.985 26.45,-1.299 26.364,-1.614 26.278,-1.929 26.195,-2.221 26.115,-2.49 c -0.08,-0.269 -0.136,-0.484 -0.171,-0.644 -0.057,-0.24 -0.069,-0.466 -0.035,-0.678 0.035,-0.212 0.11,-0.398 0.224,-0.558 0.114,-0.16 0.266,-0.289 0.455,-0.386 0.188,-0.098 0.415,-0.146 0.678,-0.146 0.252,0 0.518,0.077 0.798,0.232 0.281,0.154 0.564,0.354 0.85,0.601 0.286,0.246 0.561,0.52 0.824,0.824 0.264,0.303 0.51,0.603 0.739,0.901 0.229,0.298 0.426,0.578 0.592,0.842 0.166,0.263 0.289,0.474 0.369,0.635 0.091,0.182 0.138,0.334 0.138,0.455 0,0.12 -0.026,0.197 -0.078,0.231" /></g><g
           transform="translate(162.6187,15.3355)"
           id="g88"><path
             id="path90"
             style="fill:none;stroke:#683c10;stroke-width:0.30000001;stroke-linecap:butt;stroke-linejoin:miter;stroke-miterlimit:10;stroke-dasharray:none;stroke-opacity:1"
             d="m 0,0 c 0.16,0.372 0.332,0.687 0.516,0.944 0.182,0.258 0.369,0.455 0.557,0.593 0.19,0.137 0.353,0.206 0.489,0.206 0.126,0 0.224,-0.049 0.292,-0.146 C 1.924,1.499 1.946,1.342 1.924,1.125 1.9,0.918 1.792,0.672 1.597,0.386 1.402,0.1 1.059,-0.232 0.567,-0.61 0.406,-0.736 0.246,-0.853 0.086,-0.962 -0.074,-1.071 -0.223,-1.176 -0.36,-1.279 -0.28,-0.799 -0.16,-0.373 0,0 Z m 31.498,-0.181 c -0.051,0.035 -0.123,0.029 -0.214,-0.017 -0.092,-0.046 -0.189,-0.143 -0.292,-0.292 -0.149,-0.229 -0.367,-0.529 -0.652,-0.901 -0.287,-0.372 -0.59,-0.735 -0.91,-1.09 -0.322,-0.355 -0.639,-0.659 -0.953,-0.91 -0.316,-0.252 -0.576,-0.378 -0.782,-0.378 -0.206,0 -0.317,0.091 -0.335,0.275 -0.016,0.182 0.009,0.4 0.077,0.652 0.126,0.389 0.233,0.747 0.318,1.073 0.086,0.327 0.157,0.61 0.215,0.85 l 0.189,0.755 c 0.103,0.367 0.146,0.705 0.129,1.014 -0.017,0.309 -0.075,0.575 -0.172,0.798 -0.097,0.223 -0.232,0.397 -0.403,0.524 -0.172,0.125 -0.367,0.189 -0.584,0.189 -0.264,0 -0.522,-0.055 -0.773,-0.163 C 26.104,2.088 25.866,1.949 25.644,1.777 25.42,1.605 25.214,1.413 25.025,1.202 24.837,0.99 24.667,0.781 24.519,0.575 c 0.069,0.195 0.126,0.383 0.171,0.567 0.046,0.16 0.092,0.311 0.138,0.455 0.046,0.143 0.086,0.254 0.12,0.334 -0.068,0.057 -0.146,0.1 -0.231,0.129 -0.086,0.028 -0.17,0.049 -0.249,0.06 C 24.376,2.131 24.284,2.137 24.192,2.137 24.09,2.126 23.992,2.103 23.9,2.069 23.809,2.045 23.721,2.014 23.635,1.974 23.549,1.934 23.466,1.88 23.386,1.811 23.271,1.376 23.171,0.976 23.085,0.609 22.999,0.243 22.928,-0.078 22.87,-0.352 22.86,-0.402 22.851,-0.446 22.84,-0.494 22.692,-0.7 22.487,-0.957 22.218,-1.271 c -0.309,-0.36 -0.644,-0.715 -1.004,-1.064 -0.36,-0.35 -0.716,-0.65 -1.065,-0.902 -0.349,-0.252 -0.638,-0.378 -0.867,-0.378 -0.08,0 -0.154,0.026 -0.223,0.078 -0.069,0.051 -0.132,0.146 -0.189,0.283 -0.058,0.114 -0.074,0.28 -0.052,0.498 0.023,0.217 0.066,0.449 0.129,0.695 0.063,0.247 0.135,0.499 0.215,0.756 0.08,0.258 0.149,0.489 0.206,0.695 0.057,0.206 0.143,0.472 0.257,0.798 0.114,0.327 0.224,0.645 0.327,0.954 0.103,0.309 0.189,0.577 0.257,0.807 0.069,0.228 0.098,0.348 0.086,0.36 C 20.272,2.32 20.189,2.323 20.046,2.318 19.902,2.312 19.745,2.294 19.574,2.266 19.402,2.237 19.236,2.2 19.076,2.155 18.916,2.109 18.807,2.052 18.75,1.983 18.566,1.754 18.403,1.405 18.261,0.936 18.117,0.466 18,-0.029 17.908,-0.55 17.897,-0.61 17.892,-0.669 17.882,-0.729 17.773,-0.875 17.657,-1.034 17.53,-1.211 17.244,-1.611 16.938,-2 16.612,-2.378 c -0.326,-0.378 -0.661,-0.704 -1.005,-0.979 -0.342,-0.275 -0.658,-0.412 -0.944,-0.412 -0.366,0 -0.486,0.286 -0.36,0.858 l 0.584,2.318 c 0.068,0.309 0.117,0.63 0.145,0.962 0.029,0.332 0.012,0.641 -0.051,0.927 C 14.918,1.582 14.804,1.817 14.638,2 14.472,2.183 14.234,2.275 13.925,2.275 13.661,2.275 13.398,2.212 13.136,2.086 12.872,1.96 12.617,1.8 12.371,1.605 12.125,1.41 11.891,1.19 11.667,0.944 11.444,0.698 11.24,0.455 11.058,0.214 11.092,0.489 11.104,0.755 11.092,1.013 11.08,1.271 11.037,1.494 10.963,1.683 10.889,1.871 10.786,2.023 10.654,2.137 10.522,2.252 10.359,2.309 10.165,2.309 9.913,2.309 9.658,2.252 9.4,2.137 9.144,2.023 8.889,1.868 8.637,1.674 8.385,1.479 8.136,1.259 7.89,1.013 7.644,0.767 7.412,0.506 7.194,0.231 7.286,0.586 7.354,0.855 7.4,1.039 7.526,1.668 7.406,1.983 7.04,1.983 6.96,1.983 6.862,1.966 6.748,1.931 6.656,1.908 6.536,1.874 6.388,1.828 6.238,1.783 6.067,1.714 5.872,1.623 5.896,1.542 5.904,1.442 5.898,1.322 5.893,1.202 5.878,1.079 5.855,0.953 5.832,0.815 5.804,0.672 5.77,0.523 L 5.517,-0.524 C 5.292,-0.792 5.014,-1.106 4.679,-1.468 4.33,-1.846 3.952,-2.209 3.546,-2.559 3.14,-2.908 2.725,-3.206 2.301,-3.451 1.878,-3.698 1.471,-3.82 1.082,-3.82 c -0.184,0 -0.363,0.025 -0.541,0.077 -0.178,0.051 -0.335,0.137 -0.472,0.257 -0.137,0.12 -0.252,0.278 -0.343,0.472 -0.092,0.195 -0.144,0.435 -0.155,0.722 0.172,0.125 0.372,0.266 0.601,0.42 0.228,0.155 0.47,0.318 0.722,0.49 0.228,0.16 0.471,0.337 0.729,0.532 0.258,0.194 0.5,0.412 0.73,0.652 0.228,0.24 0.426,0.51 0.592,0.807 0.165,0.298 0.266,0.624 0.3,0.979 C 3.269,1.908 3.183,2.177 2.988,2.395 2.793,2.612 2.479,2.721 2.044,2.721 1.586,2.721 1.131,2.578 0.679,2.292 0.227,2.006 -0.18,1.645 -0.54,1.21 -0.901,0.775 -1.204,0.297 -1.45,-0.224 -1.658,-0.663 -1.79,-1.083 -1.855,-1.485 -1.884,-1.517 -1.91,-1.547 -1.939,-1.58 -2.101,-1.757 -2.266,-1.932 -2.438,-2.104 -2.609,-2.275 -2.764,-2.418 -2.901,-2.533 -3.508,-3.025 -3.963,-3.32 -4.267,-3.417 c -0.302,-0.098 -0.505,-0.055 -0.609,0.129 -0.08,0.137 -0.092,0.297 -0.034,0.48 0.056,0.183 0.138,0.407 0.24,0.67 0.149,0.378 0.277,0.71 0.387,0.996 0.108,0.286 0.197,0.546 0.265,0.781 0.07,0.235 0.123,0.449 0.164,0.644 0.04,0.195 0.06,0.384 0.06,0.567 0.011,0.297 -0.012,0.546 -0.069,0.747 -0.057,0.2 -0.14,0.36 -0.248,0.48 -0.11,0.121 -0.236,0.206 -0.378,0.258 -0.144,0.051 -0.295,0.077 -0.455,0.077 -0.31,0 -0.602,-0.066 -0.876,-0.197 C -6.095,2.083 -6.355,1.917 -6.602,1.717 -6.848,1.517 -7.073,1.296 -7.279,1.056 -7.485,0.815 -7.663,0.581 -7.812,0.352 c 0.251,0.996 0.527,1.931 0.825,2.807 0.297,0.876 0.566,1.777 0.806,2.704 0.057,0.252 0.109,0.487 0.155,0.704 0.022,0.183 0.037,0.361 0.043,0.533 0.005,0.171 -0.026,0.285 -0.095,0.343 C -6.101,7.5 -6.152,7.537 -6.232,7.555 -6.312,7.572 -6.398,7.58 -6.49,7.58 -6.593,7.58 -6.707,7.569 -6.833,7.546 -6.959,7.523 -7.085,7.494 -7.211,7.46 -7.314,7.437 -7.42,7.409 -7.528,7.374 -7.638,7.34 -7.737,7.294 -7.829,7.237 -7.795,7.076 -7.777,6.899 -7.777,6.705 -7.777,6.51 -7.789,6.321 -7.812,6.138 -7.835,5.932 -7.863,5.72 -7.897,5.503 -7.967,5.194 -8.093,4.638 -8.275,3.837 -8.436,3.162 -8.665,2.183 -8.962,0.901 c -0.298,-1.282 -0.704,-2.982 -1.22,-5.099 0.035,-0.126 0.086,-0.226 0.155,-0.301 0.069,-0.074 0.137,-0.134 0.206,-0.18 0.08,-0.046 0.166,-0.08 0.258,-0.103 0.08,-0.011 0.16,-0.017 0.24,-0.017 0.069,0 0.143,0.011 0.223,0.034 0.08,0.023 0.155,0.063 0.223,0.12 0.08,0.332 0.164,0.713 0.249,1.142 0.086,0.429 0.169,0.827 0.249,1.193 0.092,0.435 0.184,0.876 0.275,1.323 0.149,0.24 0.321,0.486 0.515,0.738 0.194,0.251 0.398,0.478 0.61,0.678 0.211,0.2 0.423,0.363 0.635,0.489 0.212,0.126 0.409,0.189 0.592,0.189 0.264,0 0.412,-0.128 0.447,-0.386 0.034,-0.258 0.008,-0.57 -0.078,-0.936 -0.085,-0.367 -0.2,-0.747 -0.343,-1.141 -0.143,-0.395 -0.254,-0.736 -0.335,-1.022 -0.126,-0.458 -0.192,-0.839 -0.197,-1.142 -0.006,-0.303 0.094,-0.587 0.3,-0.85 0.229,-0.297 0.461,-0.446 0.696,-0.446 0.235,0 0.524,0.097 0.866,0.292 0.31,0.171 0.63,0.388 0.962,0.652 0.332,0.263 0.662,0.543 0.988,0.841 0.189,0.174 0.371,0.35 0.547,0.53 0.021,-0.244 0.068,-0.466 0.139,-0.667 0.144,-0.401 0.335,-0.727 0.575,-0.979 0.241,-0.251 0.507,-0.437 0.799,-0.558 0.292,-0.12 0.564,-0.18 0.816,-0.18 0.48,0 0.975,0.114 1.485,0.343 0.509,0.229 1.007,0.53 1.493,0.902 0.487,0.371 0.947,0.795 1.383,1.27 0.137,0.15 0.262,0.305 0.391,0.457 L 4.687,-3.958 C 4.631,-4.21 4.619,-4.398 4.653,-4.524 4.687,-4.65 4.742,-4.733 4.816,-4.773 c 0.075,-0.04 0.155,-0.055 0.241,-0.043 0.086,0.011 0.157,0.028 0.214,0.051 l 0.859,0.378 c 0.022,0.08 0.04,0.166 0.052,0.258 0.01,0.091 0.028,0.177 0.051,0.257 0.023,0.091 0.045,0.183 0.069,0.275 v -0.035 c 0.206,0.939 0.455,1.703 0.747,2.293 0.292,0.589 0.586,1.049 0.884,1.381 0.297,0.333 0.566,0.556 0.807,0.67 0.24,0.115 0.411,0.172 0.515,0.172 0.138,0 0.243,-0.04 0.317,-0.12 C 9.646,0.684 9.685,0.535 9.685,0.317 9.685,0.008 9.642,-0.355 9.556,-0.773 9.47,-1.191 9.369,-1.608 9.255,-2.026 9.141,-2.444 9.023,-2.831 8.903,-3.185 8.783,-3.54 8.699,-3.798 8.654,-3.958 8.563,-4.29 8.551,-4.499 8.619,-4.584 8.688,-4.67 8.837,-4.708 9.066,-4.696 c 0.08,0.011 0.171,0.029 0.275,0.051 0.194,0.035 0.4,0.109 0.618,0.224 0.172,1.03 0.409,1.879 0.713,2.549 0.303,0.67 0.611,1.202 0.927,1.597 0.314,0.395 0.606,0.672 0.876,0.833 0.268,0.16 0.448,0.24 0.54,0.24 0.195,0 0.332,-0.08 0.412,-0.24 0.08,-0.161 0.086,-0.39 0.017,-0.687 -0.057,-0.24 -0.126,-0.515 -0.206,-0.824 -0.08,-0.309 -0.16,-0.627 -0.24,-0.953 -0.08,-0.326 -0.146,-0.644 -0.197,-0.953 -0.052,-0.309 -0.077,-0.584 -0.077,-0.824 0,-0.24 0.039,-0.438 0.12,-0.592 0.079,-0.155 0.185,-0.278 0.317,-0.37 0.131,-0.091 0.275,-0.154 0.429,-0.188 0.155,-0.035 0.312,-0.052 0.473,-0.052 0.48,0 0.944,0.143 1.39,0.429 0.446,0.286 0.867,0.641 1.262,1.065 0.361,0.387 0.692,0.804 1.001,1.244 -0.029,-0.464 -0.029,-0.835 0.004,-1.107 0.01,-0.195 0.068,-0.381 0.172,-0.558 0.102,-0.178 0.231,-0.332 0.385,-0.463 0.155,-0.132 0.327,-0.235 0.516,-0.309 0.188,-0.075 0.38,-0.106 0.575,-0.095 0.24,0.012 0.552,0.16 0.936,0.447 0.383,0.285 0.775,0.632 1.175,1.038 0.349,0.353 0.676,0.722 0.991,1.101 -0.016,-0.061 -0.031,-0.12 -0.046,-0.182 -0.092,-0.367 -0.18,-0.713 -0.266,-1.039 -0.086,-0.326 -0.16,-0.609 -0.223,-0.85 -0.063,-0.24 -0.1,-0.395 -0.112,-0.463 -0.022,-0.103 0.037,-0.155 0.181,-0.155 0.142,0 0.311,0.034 0.506,0.103 0.194,0.069 0.378,0.158 0.55,0.266 0.171,0.109 0.274,0.22 0.308,0.335 0.034,0.16 0.074,0.329 0.12,0.506 0.046,0.178 0.095,0.384 0.147,0.618 0.052,0.235 0.111,0.498 0.179,0.79 0.07,0.292 0.156,0.633 0.258,1.022 0.195,0.286 0.393,0.563 0.593,0.833 0.2,0.268 0.4,0.506 0.601,0.712 0.2,0.206 0.397,0.369 0.592,0.49 0.195,0.12 0.383,0.18 0.567,0.18 0.148,0 0.246,-0.083 0.292,-0.249 C 26.763,0.658 26.773,0.446 26.751,0.188 26.728,-0.069 26.68,-0.355 26.605,-0.67 26.53,-0.985 26.45,-1.299 26.364,-1.614 26.278,-1.929 26.195,-2.221 26.115,-2.49 c -0.08,-0.269 -0.136,-0.484 -0.171,-0.644 -0.057,-0.24 -0.069,-0.466 -0.035,-0.678 0.035,-0.212 0.11,-0.398 0.224,-0.558 0.114,-0.16 0.266,-0.289 0.455,-0.386 0.188,-0.098 0.415,-0.146 0.678,-0.146 0.252,0 0.518,0.077 0.798,0.232 0.281,0.154 0.564,0.354 0.85,0.601 0.286,0.246 0.561,0.52 0.824,0.824 0.264,0.303 0.51,0.603 0.739,0.901 0.229,0.298 0.426,0.578 0.592,0.842 0.166,0.263 0.289,0.474 0.369,0.635 0.091,0.182 0.138,0.334 0.138,0.455 0,0.12 -0.026,0.197 -0.078,0.231 z" /></g><g
           transform="translate(134.1089,14.5713)"
           id="g92"><path
             id="path94"
             style="fill:#683c10;fill-opacity:1;fill-rule:nonzero;stroke:none"
             d="m 0,0 c -0.041,-0.218 -0.084,-0.435 -0.129,-0.652 -0.126,-0.161 -0.289,-0.361 -0.489,-0.601 -0.201,-0.241 -0.418,-0.476 -0.653,-0.705 -0.235,-0.229 -0.475,-0.423 -0.721,-0.583 -0.246,-0.161 -0.472,-0.241 -0.678,-0.241 -0.275,0 -0.493,0.12 -0.652,0.361 -0.161,0.24 -0.23,0.635 -0.207,1.185 0.023,0.343 0.114,0.732 0.275,1.167 0.16,0.435 0.36,0.844 0.601,1.228 0.24,0.383 0.498,0.71 0.772,0.979 0.276,0.268 0.544,0.403 0.808,0.403 0.182,0 0.326,-0.072 0.428,-0.215 0.104,-0.143 0.181,-0.309 0.233,-0.497 0.051,-0.189 0.082,-0.372 0.094,-0.55 0.011,-0.177 0.017,-0.3 0.017,-0.369 0,-0.138 0.023,-0.238 0.069,-0.301 C -0.187,0.546 -0.101,0.543 0.025,0.601 0.048,0.612 0.068,0.624 0.085,0.635 0.103,0.646 0.122,0.658 0.146,0.669 0.088,0.44 0.04,0.217 0,0 m -16.037,1.365 c -0.028,-0.189 -0.071,-0.427 -0.129,-0.713 -0.058,-0.286 -0.126,-0.584 -0.206,-0.892 -0.08,-0.31 -0.149,-0.579 -0.206,-0.807 -0.012,-0.058 -0.06,-0.149 -0.146,-0.275 -0.086,-0.126 -0.195,-0.263 -0.326,-0.412 -0.132,-0.149 -0.281,-0.292 -0.446,-0.43 -0.166,-0.137 -0.332,-0.249 -0.498,-0.335 -0.166,-0.085 -0.329,-0.131 -0.489,-0.137 -0.162,-0.006 -0.304,0.054 -0.43,0.18 -0.068,0.069 -0.114,0.215 -0.138,0.438 -0.022,0.224 -0.013,0.484 0.027,0.782 0.04,0.297 0.111,0.615 0.214,0.953 0.103,0.337 0.241,0.655 0.413,0.952 0.412,0.722 0.774,1.217 1.089,1.486 0.315,0.268 0.536,0.352 0.662,0.249 0.034,-0.046 0.056,-0.11 0.068,-0.189 0.012,-0.069 0.009,-0.163 -0.009,-0.283 -0.017,-0.12 -0.071,-0.273 -0.163,-0.455 0.092,0.022 0.184,0.04 0.275,0.051 0.091,0.011 0.165,0.028 0.223,0.052 0.069,0.022 0.132,0.04 0.19,0.051 0.044,0.011 0.053,-0.077 0.025,-0.266 M 5.297,0.566 C 5.251,0.601 5.19,0.612 5.116,0.601 5.042,0.589 4.971,0.549 4.901,0.48 4.844,0.423 4.738,0.297 4.584,0.103 4.43,-0.092 4.24,-0.318 4.018,-0.575 3.794,-0.833 3.551,-1.105 3.287,-1.391 3.024,-1.677 2.761,-1.94 2.498,-2.181 2.234,-2.421 1.985,-2.622 1.751,-2.782 c -0.234,-0.16 -0.433,-0.24 -0.593,-0.24 -0.137,0 -0.262,0.063 -0.377,0.189 -0.115,0.125 -0.166,0.332 -0.155,0.618 0.012,0.194 0.043,0.452 0.095,0.773 0.051,0.32 0.105,0.658 0.163,1.013 0.378,0.572 0.729,1.176 1.055,1.811 0.327,0.635 0.616,1.271 0.868,1.906 0.252,0.635 0.455,1.25 0.609,1.846 0.155,0.595 0.243,1.144 0.267,1.648 0.022,0.412 0.022,0.738 0,0.979 C 3.659,8.001 3.616,8.181 3.554,8.301 3.491,8.422 3.413,8.496 3.322,8.525 3.23,8.553 3.127,8.568 3.013,8.568 2.921,8.568 2.824,8.55 2.721,8.516 2.629,8.493 2.532,8.458 2.429,8.413 2.326,8.367 2.217,8.298 2.103,8.207 1.92,7.6 1.754,7.022 1.605,6.473 1.456,5.923 1.324,5.437 1.21,5.014 1.084,4.521 0.964,4.063 0.85,3.64 0.781,3.354 0.712,3.05 0.644,2.73 0.575,2.409 0.5,2.083 0.42,1.751 0.386,1.911 0.331,2.083 0.257,2.266 0.183,2.449 0.088,2.618 -0.026,2.773 -0.141,2.927 -0.278,3.053 -0.438,3.15 -0.599,3.248 -0.776,3.296 -0.971,3.296 -1.417,3.296 -1.86,3.167 -2.301,2.91 -2.742,2.653 -3.137,2.303 -3.486,1.863 -3.835,1.422 -4.124,0.904 -4.353,0.309 c -0.135,-0.353 -0.233,-0.719 -0.3,-1.096 -0.249,-0.316 -0.508,-0.627 -0.782,-0.93 -0.32,-0.355 -0.638,-0.658 -0.953,-0.91 -0.314,-0.252 -0.575,-0.378 -0.781,-0.378 -0.206,0 -0.317,0.091 -0.335,0.275 -0.017,0.183 0.009,0.4 0.077,0.652 0.126,0.39 0.233,0.747 0.319,1.074 0.086,0.326 0.157,0.609 0.213,0.849 l 0.19,0.756 C -6.603,0.967 -6.56,1.305 -6.576,1.614 -6.594,1.923 -6.651,2.189 -6.748,2.412 -6.846,2.635 -6.979,2.81 -7.151,2.936 -7.323,3.062 -7.519,3.125 -7.735,3.125 -7.999,3.125 -8.257,3.07 -8.508,2.962 -8.76,2.853 -8.997,2.713 -9.221,2.541 -9.443,2.369 -9.649,2.177 -9.839,1.966 c -0.188,-0.212 -0.357,-0.421 -0.507,-0.627 0.07,0.195 0.126,0.384 0.172,0.567 0.046,0.16 0.092,0.311 0.138,0.455 0.046,0.143 0.086,0.254 0.12,0.334 -0.068,0.057 -0.146,0.1 -0.231,0.129 -0.086,0.029 -0.169,0.049 -0.249,0.06 -0.092,0.012 -0.184,0.017 -0.276,0.017 -0.102,-0.011 -0.2,-0.034 -0.291,-0.068 -0.092,-0.023 -0.181,-0.055 -0.266,-0.095 -0.086,-0.04 -0.169,-0.094 -0.25,-0.163 -0.114,-0.435 -0.214,-0.835 -0.3,-1.201 -0.085,-0.367 -0.158,-0.687 -0.214,-0.962 -0.028,-0.125 -0.053,-0.243 -0.078,-0.36 -0.023,-0.028 -0.044,-0.055 -0.069,-0.087 -0.154,-0.194 -0.329,-0.418 -0.523,-0.669 -0.195,-0.252 -0.403,-0.512 -0.627,-0.781 -0.223,-0.269 -0.438,-0.515 -0.644,-0.739 -0.206,-0.223 -0.401,-0.406 -0.584,-0.549 -0.183,-0.144 -0.332,-0.215 -0.446,-0.215 -0.138,0 -0.243,0.032 -0.317,0.095 -0.075,0.062 -0.129,0.146 -0.163,0.249 -0.035,0.103 -0.055,0.214 -0.061,0.334 -0.006,0.121 -0.003,0.232 0.009,0.335 0.034,0.172 0.062,0.315 0.086,0.43 0.022,0.114 0.043,0.214 0.059,0.3 0.018,0.086 0.036,0.172 0.052,0.258 0.018,0.086 0.037,0.18 0.061,0.283 0.114,0.526 0.206,0.955 0.274,1.287 0.068,0.333 0.12,0.596 0.154,0.791 0.035,0.194 0.052,0.328 0.052,0.403 0,0.074 -0.006,0.123 -0.017,0.146 -0.023,0.011 -0.069,0.017 -0.137,0.017 -0.058,0 -0.141,-0.006 -0.249,-0.017 -0.11,-0.012 -0.243,-0.034 -0.403,-0.069 0.24,0.366 0.334,0.661 0.283,0.884 -0.052,0.224 -0.158,0.392 -0.319,0.507 -0.194,0.126 -0.446,0.217 -0.754,0.275 -0.264,0.022 -0.596,-0.069 -0.997,-0.275 -0.4,-0.206 -0.806,-0.513 -1.218,-0.919 -0.412,-0.406 -0.793,-0.895 -1.142,-1.468 -0.306,-0.499 -0.533,-1.049 -0.694,-1.645 -0.013,-0.016 -0.023,-0.03 -0.036,-0.046 -0.206,-0.257 -0.429,-0.521 -0.669,-0.79 -0.242,-0.269 -0.485,-0.515 -0.731,-0.738 -0.246,-0.223 -0.486,-0.407 -0.721,-0.55 -0.234,-0.143 -0.449,-0.214 -0.643,-0.214 -0.264,0 -0.424,0.045 -0.482,0.137 -0.056,0.092 -0.096,0.212 -0.12,0.361 -0.022,0.229 0.046,0.486 0.206,0.773 0.161,0.286 0.321,0.543 0.482,0.772 0.263,0.366 0.486,0.704 0.669,1.013 0.183,0.309 0.258,0.607 0.223,0.893 -0.011,0.137 -0.037,0.289 -0.077,0.455 -0.04,0.166 -0.1,0.32 -0.18,0.464 -0.08,0.143 -0.184,0.263 -0.309,0.36 -0.126,0.097 -0.287,0.146 -0.481,0.146 -0.161,0 -0.278,-0.012 -0.352,-0.034 -0.075,-0.023 -0.203,-0.034 -0.387,-0.034 -0.126,0 -0.216,0.014 -0.274,0.043 -0.058,0.028 -0.104,0.053 -0.138,0.077 0.126,0.182 0.212,0.388 0.258,0.618 0.046,0.228 0.058,0.417 0.034,0.566 -0.022,0.218 -0.1,0.43 -0.231,0.636 -0.132,0.206 -0.359,0.309 -0.679,0.309 -0.171,0 -0.349,-0.08 -0.532,-0.241 -0.183,-0.16 -0.349,-0.352 -0.498,-0.575 -0.149,-0.223 -0.269,-0.455 -0.361,-0.695 -0.091,-0.241 -0.126,-0.436 -0.102,-0.584 0.022,-0.172 0.057,-0.283 0.102,-0.335 0.046,-0.051 0.132,-0.134 0.258,-0.249 -0.068,-0.126 -0.178,-0.329 -0.326,-0.609 -0.149,-0.281 -0.312,-0.599 -0.489,-0.953 -0.178,-0.355 -0.363,-0.73 -0.559,-1.125 -0.194,-0.395 -0.374,-0.761 -0.54,-1.099 -0.166,-0.338 -0.309,-0.627 -0.43,-0.867 -0.12,-0.24 -0.197,-0.395 -0.231,-0.463 -0.069,-0.138 -0.092,-0.252 -0.069,-0.344 0.023,-0.091 0.072,-0.151 0.146,-0.18 0.074,-0.028 0.16,-0.023 0.258,0.017 0.097,0.04 0.186,0.123 0.266,0.249 0.034,0.046 0.123,0.186 0.266,0.421 0.143,0.234 0.318,0.52 0.524,0.858 0.206,0.338 0.425,0.701 0.661,1.091 0.234,0.388 0.457,0.761 0.669,1.115 0.212,0.355 0.398,0.664 0.558,0.928 0.16,0.263 0.263,0.435 0.309,0.515 0.092,-0.023 0.189,-0.057 0.292,-0.103 0.103,-0.046 0.229,-0.069 0.378,-0.069 0.102,0 0.181,0.003 0.231,0.009 0.052,0.005 0.092,0.008 0.12,0.008 0.03,0 0.058,0.003 0.086,0.009 0.029,0.006 0.077,0.008 0.147,0.008 0.102,0 0.177,-0.04 0.222,-0.12 0.046,-0.08 0.07,-0.172 0.07,-0.275 0,-0.16 -0.061,-0.357 -0.181,-0.592 -0.12,-0.235 -0.277,-0.518 -0.472,-0.85 -0.081,-0.16 -0.169,-0.323 -0.266,-0.489 -0.098,-0.166 -0.189,-0.332 -0.275,-0.498 -0.085,-0.166 -0.161,-0.326 -0.223,-0.481 -0.063,-0.154 -0.101,-0.3 -0.112,-0.438 -0.011,-0.171 0.009,-0.358 0.06,-0.558 0.052,-0.2 0.138,-0.383 0.258,-0.549 0.12,-0.166 0.277,-0.306 0.473,-0.421 0.194,-0.114 0.44,-0.171 0.738,-0.171 0.286,0 0.586,0.086 0.901,0.257 0.315,0.172 0.629,0.392 0.945,0.661 0.314,0.269 0.615,0.567 0.901,0.893 0.087,0.099 0.167,0.196 0.25,0.295 0.001,-0.071 0.001,-0.143 0.008,-0.209 0.034,-0.372 0.114,-0.676 0.24,-0.91 0.125,-0.235 0.28,-0.407 0.463,-0.515 0.183,-0.109 0.355,-0.163 0.515,-0.163 0.343,0.023 0.687,0.097 1.031,0.223 0.297,0.114 0.612,0.294 0.944,0.541 0.332,0.246 0.635,0.598 0.91,1.056 -0.012,-0.31 0.008,-0.567 0.06,-0.773 0.052,-0.206 0.105,-0.372 0.163,-0.498 0.068,-0.149 0.154,-0.263 0.258,-0.343 0.102,-0.069 0.222,-0.117 0.36,-0.146 0.138,-0.029 0.283,-0.037 0.438,-0.026 0.155,0.012 0.306,0.04 0.455,0.086 0.149,0.046 0.28,0.103 0.395,0.172 0.172,0.114 0.386,0.311 0.644,0.592 0.257,0.28 0.52,0.589 0.79,0.927 0.175,0.221 0.342,0.442 0.51,0.663 -10e-4,-0.007 -0.002,-0.012 -0.003,-0.019 -0.093,-0.366 -0.181,-0.713 -0.267,-1.039 -0.086,-0.326 -0.16,-0.609 -0.224,-0.85 -0.062,-0.24 -0.099,-0.394 -0.111,-0.463 -0.022,-0.103 0.037,-0.155 0.181,-0.155 0.142,0 0.311,0.035 0.506,0.103 0.195,0.069 0.377,0.158 0.549,0.266 0.172,0.109 0.275,0.22 0.309,0.335 0.035,0.16 0.075,0.329 0.121,0.506 0.045,0.178 0.094,0.384 0.146,0.619 0.051,0.234 0.111,0.498 0.18,0.79 0.069,0.292 0.154,0.632 0.257,1.021 0.195,0.286 0.393,0.564 0.593,0.833 0.2,0.269 0.4,0.506 0.6,0.712 0.201,0.207 0.398,0.37 0.593,0.49 0.194,0.12 0.383,0.18 0.567,0.18 0.148,0 0.246,-0.083 0.292,-0.249 C -8.102,1.422 -8.091,1.21 -8.113,0.953 -8.136,0.695 -8.185,0.409 -8.259,0.094 -8.334,-0.221 -8.414,-0.535 -8.499,-0.85 -8.585,-1.165 -8.669,-1.457 -8.748,-1.726 -8.829,-1.995 -8.886,-2.209 -8.92,-2.37 c -0.058,-0.24 -0.068,-0.466 -0.034,-0.678 0.034,-0.212 0.108,-0.398 0.223,-0.558 0.114,-0.16 0.266,-0.289 0.455,-0.386 0.189,-0.097 0.415,-0.146 0.678,-0.146 0.251,0 0.518,0.077 0.798,0.232 0.28,0.154 0.564,0.354 0.85,0.601 0.286,0.246 0.561,0.52 0.824,0.824 0.131,0.15 0.257,0.3 0.38,0.449 0.013,-0.233 0.045,-0.445 0.101,-0.63 0.091,-0.297 0.208,-0.538 0.352,-0.721 0.144,-0.183 0.307,-0.315 0.489,-0.394 0.184,-0.08 0.355,-0.12 0.516,-0.12 0.446,0 0.912,0.157 1.399,0.471 0.487,0.315 0.97,0.741 1.451,1.28 -0.023,-0.195 -0.041,-0.333 -0.052,-0.413 -0.011,-0.183 0.014,-0.366 0.078,-0.549 0.062,-0.183 0.151,-0.349 0.266,-0.498 0.114,-0.148 0.243,-0.269 0.386,-0.36 0.143,-0.092 0.294,-0.138 0.455,-0.138 0.217,0 0.46,0.072 0.73,0.215 0.268,0.143 0.549,0.329 0.841,0.558 0.292,0.229 0.584,0.492 0.876,0.79 0.292,0.297 0.569,0.601 0.833,0.91 0.262,0.309 0.503,0.609 0.72,0.901 0.218,0.292 0.396,0.547 0.533,0.764 0.091,0.137 0.137,0.252 0.137,0.343 0,0.092 -0.023,0.155 -0.068,0.189" /></g><g
           transform="translate(134.1089,14.5713)"
           id="g96"><path
             id="path98"
             style="fill:none;stroke:#683c10;stroke-width:0.30000001;stroke-linecap:butt;stroke-linejoin:miter;stroke-miterlimit:10;stroke-dasharray:none;stroke-opacity:1"
             d="m 0,0 c -0.041,-0.218 -0.084,-0.435 -0.129,-0.652 -0.126,-0.161 -0.289,-0.361 -0.489,-0.601 -0.201,-0.241 -0.418,-0.476 -0.653,-0.705 -0.235,-0.229 -0.475,-0.423 -0.721,-0.583 -0.246,-0.161 -0.472,-0.241 -0.678,-0.241 -0.275,0 -0.493,0.12 -0.652,0.361 -0.161,0.24 -0.23,0.635 -0.207,1.185 0.023,0.343 0.114,0.732 0.275,1.167 0.16,0.435 0.36,0.844 0.601,1.228 0.24,0.383 0.498,0.71 0.772,0.979 0.276,0.268 0.544,0.403 0.808,0.403 0.182,0 0.326,-0.072 0.428,-0.215 0.104,-0.143 0.181,-0.309 0.233,-0.497 0.051,-0.189 0.082,-0.372 0.094,-0.55 0.011,-0.177 0.017,-0.3 0.017,-0.369 0,-0.138 0.023,-0.238 0.069,-0.301 C -0.187,0.546 -0.101,0.543 0.025,0.601 0.048,0.612 0.068,0.624 0.085,0.635 0.103,0.646 0.122,0.658 0.146,0.669 0.088,0.44 0.04,0.217 0,0 Z m -16.037,1.365 c -0.028,-0.189 -0.071,-0.427 -0.129,-0.713 -0.058,-0.286 -0.126,-0.584 -0.206,-0.892 -0.08,-0.31 -0.149,-0.579 -0.206,-0.807 -0.012,-0.058 -0.06,-0.149 -0.146,-0.275 -0.086,-0.126 -0.195,-0.263 -0.326,-0.412 -0.132,-0.149 -0.281,-0.292 -0.446,-0.43 -0.166,-0.137 -0.332,-0.249 -0.498,-0.335 -0.166,-0.085 -0.329,-0.131 -0.489,-0.137 -0.162,-0.006 -0.304,0.054 -0.43,0.18 -0.068,0.069 -0.114,0.215 -0.138,0.438 -0.022,0.224 -0.013,0.484 0.027,0.782 0.04,0.297 0.111,0.615 0.214,0.953 0.103,0.337 0.241,0.655 0.413,0.952 0.412,0.722 0.774,1.217 1.089,1.486 0.315,0.268 0.536,0.352 0.662,0.249 0.034,-0.046 0.056,-0.11 0.068,-0.189 0.012,-0.069 0.009,-0.163 -0.009,-0.283 -0.017,-0.12 -0.071,-0.273 -0.163,-0.455 0.092,0.022 0.184,0.04 0.275,0.051 0.091,0.011 0.165,0.028 0.223,0.052 0.069,0.022 0.132,0.04 0.19,0.051 0.044,0.011 0.053,-0.077 0.025,-0.266 z M 5.297,0.566 C 5.251,0.601 5.19,0.612 5.116,0.601 5.042,0.589 4.971,0.549 4.901,0.48 4.844,0.423 4.738,0.297 4.584,0.103 4.43,-0.092 4.24,-0.318 4.018,-0.575 3.794,-0.833 3.551,-1.105 3.287,-1.391 3.024,-1.677 2.761,-1.94 2.498,-2.181 2.234,-2.421 1.985,-2.622 1.751,-2.782 c -0.234,-0.16 -0.433,-0.24 -0.593,-0.24 -0.137,0 -0.262,0.063 -0.377,0.189 -0.115,0.125 -0.166,0.332 -0.155,0.618 0.012,0.194 0.043,0.452 0.095,0.773 0.051,0.32 0.105,0.658 0.163,1.013 0.378,0.572 0.729,1.176 1.055,1.811 0.327,0.635 0.616,1.271 0.868,1.906 0.252,0.635 0.455,1.25 0.609,1.846 0.155,0.595 0.243,1.144 0.267,1.648 0.022,0.412 0.022,0.738 0,0.979 C 3.659,8.001 3.616,8.181 3.554,8.301 3.491,8.422 3.413,8.496 3.322,8.525 3.23,8.553 3.127,8.568 3.013,8.568 2.921,8.568 2.824,8.55 2.721,8.516 2.629,8.493 2.532,8.458 2.429,8.413 2.326,8.367 2.217,8.298 2.103,8.207 1.92,7.6 1.754,7.022 1.605,6.473 1.456,5.923 1.324,5.437 1.21,5.014 1.084,4.521 0.964,4.063 0.85,3.64 0.781,3.354 0.712,3.05 0.644,2.73 0.575,2.409 0.5,2.083 0.42,1.751 0.386,1.911 0.331,2.083 0.257,2.266 0.183,2.449 0.088,2.618 -0.026,2.773 -0.141,2.927 -0.278,3.053 -0.438,3.15 -0.599,3.248 -0.776,3.296 -0.971,3.296 -1.417,3.296 -1.86,3.167 -2.301,2.91 -2.742,2.653 -3.137,2.303 -3.486,1.863 -3.835,1.422 -4.124,0.904 -4.353,0.309 c -0.135,-0.353 -0.233,-0.719 -0.3,-1.096 -0.249,-0.316 -0.508,-0.627 -0.782,-0.93 -0.32,-0.355 -0.638,-0.658 -0.953,-0.91 -0.314,-0.252 -0.575,-0.378 -0.781,-0.378 -0.206,0 -0.317,0.091 -0.335,0.275 -0.017,0.183 0.009,0.4 0.077,0.652 0.126,0.39 0.233,0.747 0.319,1.074 0.086,0.326 0.157,0.609 0.213,0.849 l 0.19,0.756 C -6.603,0.967 -6.56,1.305 -6.576,1.614 -6.594,1.923 -6.651,2.189 -6.748,2.412 -6.846,2.635 -6.979,2.81 -7.151,2.936 -7.323,3.062 -7.519,3.125 -7.735,3.125 -7.999,3.125 -8.257,3.07 -8.508,2.962 -8.76,2.853 -8.997,2.713 -9.221,2.541 -9.443,2.369 -9.649,2.177 -9.839,1.966 c -0.188,-0.212 -0.357,-0.421 -0.507,-0.627 0.07,0.195 0.126,0.384 0.172,0.567 0.046,0.16 0.092,0.311 0.138,0.455 0.046,0.143 0.086,0.254 0.12,0.334 -0.068,0.057 -0.146,0.1 -0.231,0.129 -0.086,0.029 -0.169,0.049 -0.249,0.06 -0.092,0.012 -0.184,0.017 -0.276,0.017 -0.102,-0.011 -0.2,-0.034 -0.291,-0.068 -0.092,-0.023 -0.181,-0.055 -0.266,-0.095 -0.086,-0.04 -0.169,-0.094 -0.25,-0.163 -0.114,-0.435 -0.214,-0.835 -0.3,-1.201 -0.085,-0.367 -0.158,-0.687 -0.214,-0.962 -0.028,-0.125 -0.053,-0.243 -0.078,-0.36 -0.023,-0.028 -0.044,-0.055 -0.069,-0.087 -0.154,-0.194 -0.329,-0.418 -0.523,-0.669 -0.195,-0.252 -0.403,-0.512 -0.627,-0.781 -0.223,-0.269 -0.438,-0.515 -0.644,-0.739 -0.206,-0.223 -0.401,-0.406 -0.584,-0.549 -0.183,-0.144 -0.332,-0.215 -0.446,-0.215 -0.138,0 -0.243,0.032 -0.317,0.095 -0.075,0.062 -0.129,0.146 -0.163,0.249 -0.035,0.103 -0.055,0.214 -0.061,0.334 -0.006,0.121 -0.003,0.232 0.009,0.335 0.034,0.172 0.062,0.315 0.086,0.43 0.022,0.114 0.043,0.214 0.059,0.3 0.018,0.086 0.036,0.172 0.052,0.258 0.018,0.086 0.037,0.18 0.061,0.283 0.114,0.526 0.206,0.955 0.274,1.287 0.068,0.333 0.12,0.596 0.154,0.791 0.035,0.194 0.052,0.328 0.052,0.403 0,0.074 -0.006,0.123 -0.017,0.146 -0.023,0.011 -0.069,0.017 -0.137,0.017 -0.058,0 -0.141,-0.006 -0.249,-0.017 -0.11,-0.012 -0.243,-0.034 -0.403,-0.069 0.24,0.366 0.334,0.661 0.283,0.884 -0.052,0.224 -0.158,0.392 -0.319,0.507 -0.194,0.126 -0.446,0.217 -0.754,0.275 -0.264,0.022 -0.596,-0.069 -0.997,-0.275 -0.4,-0.206 -0.806,-0.513 -1.218,-0.919 -0.412,-0.406 -0.793,-0.895 -1.142,-1.468 -0.306,-0.499 -0.533,-1.049 -0.694,-1.645 -0.013,-0.016 -0.023,-0.03 -0.036,-0.046 -0.206,-0.257 -0.429,-0.521 -0.669,-0.79 -0.242,-0.269 -0.485,-0.515 -0.731,-0.738 -0.246,-0.223 -0.486,-0.407 -0.721,-0.55 -0.234,-0.143 -0.449,-0.214 -0.643,-0.214 -0.264,0 -0.424,0.045 -0.482,0.137 -0.056,0.092 -0.096,0.212 -0.12,0.361 -0.022,0.229 0.046,0.486 0.206,0.773 0.161,0.286 0.321,0.543 0.482,0.772 0.263,0.366 0.486,0.704 0.669,1.013 0.183,0.309 0.258,0.607 0.223,0.893 -0.011,0.137 -0.037,0.289 -0.077,0.455 -0.04,0.166 -0.1,0.32 -0.18,0.464 -0.08,0.143 -0.184,0.263 -0.309,0.36 -0.126,0.097 -0.287,0.146 -0.481,0.146 -0.161,0 -0.278,-0.012 -0.352,-0.034 -0.075,-0.023 -0.203,-0.034 -0.387,-0.034 -0.126,0 -0.216,0.014 -0.274,0.043 -0.058,0.028 -0.104,0.053 -0.138,0.077 0.126,0.182 0.212,0.388 0.258,0.618 0.046,0.228 0.058,0.417 0.034,0.566 -0.022,0.218 -0.1,0.43 -0.231,0.636 -0.132,0.206 -0.359,0.309 -0.679,0.309 -0.171,0 -0.349,-0.08 -0.532,-0.241 -0.183,-0.16 -0.349,-0.352 -0.498,-0.575 -0.149,-0.223 -0.269,-0.455 -0.361,-0.695 -0.091,-0.241 -0.126,-0.436 -0.102,-0.584 0.022,-0.172 0.057,-0.283 0.102,-0.335 0.046,-0.051 0.132,-0.134 0.258,-0.249 -0.068,-0.126 -0.178,-0.329 -0.326,-0.609 -0.149,-0.281 -0.312,-0.599 -0.489,-0.953 -0.178,-0.355 -0.363,-0.73 -0.559,-1.125 -0.194,-0.395 -0.374,-0.761 -0.54,-1.099 -0.166,-0.338 -0.309,-0.627 -0.43,-0.867 -0.12,-0.24 -0.197,-0.395 -0.231,-0.463 -0.069,-0.138 -0.092,-0.252 -0.069,-0.344 0.023,-0.091 0.072,-0.151 0.146,-0.18 0.074,-0.028 0.16,-0.023 0.258,0.017 0.097,0.04 0.186,0.123 0.266,0.249 0.034,0.046 0.123,0.186 0.266,0.421 0.143,0.234 0.318,0.52 0.524,0.858 0.206,0.338 0.425,0.701 0.661,1.091 0.234,0.388 0.457,0.761 0.669,1.115 0.212,0.355 0.398,0.664 0.558,0.928 0.16,0.263 0.263,0.435 0.309,0.515 0.092,-0.023 0.189,-0.057 0.292,-0.103 0.103,-0.046 0.229,-0.069 0.378,-0.069 0.102,0 0.181,0.003 0.231,0.009 0.052,0.005 0.092,0.008 0.12,0.008 0.03,0 0.058,0.003 0.086,0.009 0.029,0.006 0.077,0.008 0.147,0.008 0.102,0 0.177,-0.04 0.222,-0.12 0.046,-0.08 0.07,-0.172 0.07,-0.275 0,-0.16 -0.061,-0.357 -0.181,-0.592 -0.12,-0.235 -0.277,-0.518 -0.472,-0.85 -0.081,-0.16 -0.169,-0.323 -0.266,-0.489 -0.098,-0.166 -0.189,-0.332 -0.275,-0.498 -0.085,-0.166 -0.161,-0.326 -0.223,-0.481 -0.063,-0.154 -0.101,-0.3 -0.112,-0.438 -0.011,-0.171 0.009,-0.358 0.06,-0.558 0.052,-0.2 0.138,-0.383 0.258,-0.549 0.12,-0.166 0.277,-0.306 0.473,-0.421 0.194,-0.114 0.44,-0.171 0.738,-0.171 0.286,0 0.586,0.086 0.901,0.257 0.315,0.172 0.629,0.392 0.945,0.661 0.314,0.269 0.615,0.567 0.901,0.893 0.087,0.099 0.167,0.196 0.25,0.295 0.001,-0.071 0.001,-0.143 0.008,-0.209 0.034,-0.372 0.114,-0.676 0.24,-0.91 0.125,-0.235 0.28,-0.407 0.463,-0.515 0.183,-0.109 0.355,-0.163 0.515,-0.163 0.343,0.023 0.687,0.097 1.031,0.223 0.297,0.114 0.612,0.294 0.944,0.541 0.332,0.246 0.635,0.598 0.91,1.056 -0.012,-0.31 0.008,-0.567 0.06,-0.773 0.052,-0.206 0.105,-0.372 0.163,-0.498 0.068,-0.149 0.154,-0.263 0.258,-0.343 0.102,-0.069 0.222,-0.117 0.36,-0.146 0.138,-0.029 0.283,-0.037 0.438,-0.026 0.155,0.012 0.306,0.04 0.455,0.086 0.149,0.046 0.28,0.103 0.395,0.172 0.172,0.114 0.386,0.311 0.644,0.592 0.257,0.28 0.52,0.589 0.79,0.927 0.175,0.221 0.342,0.442 0.51,0.663 -10e-4,-0.007 -0.002,-0.012 -0.003,-0.019 -0.093,-0.366 -0.181,-0.713 -0.267,-1.039 -0.086,-0.326 -0.16,-0.609 -0.224,-0.85 -0.062,-0.24 -0.099,-0.394 -0.111,-0.463 -0.022,-0.103 0.037,-0.155 0.181,-0.155 0.142,0 0.311,0.035 0.506,0.103 0.195,0.069 0.377,0.158 0.549,0.266 0.172,0.109 0.275,0.22 0.309,0.335 0.035,0.16 0.075,0.329 0.121,0.506 0.045,0.178 0.094,0.384 0.146,0.619 0.051,0.234 0.111,0.498 0.18,0.79 0.069,0.292 0.154,0.632 0.257,1.021 0.195,0.286 0.393,0.564 0.593,0.833 0.2,0.269 0.4,0.506 0.6,0.712 0.201,0.207 0.398,0.37 0.593,0.49 0.194,0.12 0.383,0.18 0.567,0.18 0.148,0 0.246,-0.083 0.292,-0.249 C -8.102,1.422 -8.091,1.21 -8.113,0.953 -8.136,0.695 -8.185,0.409 -8.259,0.094 -8.334,-0.221 -8.414,-0.535 -8.499,-0.85 -8.585,-1.165 -8.669,-1.457 -8.748,-1.726 -8.829,-1.995 -8.886,-2.209 -8.92,-2.37 c -0.058,-0.24 -0.068,-0.466 -0.034,-0.678 0.034,-0.212 0.108,-0.398 0.223,-0.558 0.114,-0.16 0.266,-0.289 0.455,-0.386 0.189,-0.097 0.415,-0.146 0.678,-0.146 0.251,0 0.518,0.077 0.798,0.232 0.28,0.154 0.564,0.354 0.85,0.601 0.286,0.246 0.561,0.52 0.824,0.824 0.131,0.15 0.257,0.3 0.38,0.449 0.013,-0.233 0.045,-0.445 0.101,-0.63 0.091,-0.297 0.208,-0.538 0.352,-0.721 0.144,-0.183 0.307,-0.315 0.489,-0.394 0.184,-0.08 0.355,-0.12 0.516,-0.12 0.446,0 0.912,0.157 1.399,0.471 0.487,0.315 0.97,0.741 1.451,1.28 -0.023,-0.195 -0.041,-0.333 -0.052,-0.413 -0.011,-0.183 0.014,-0.366 0.078,-0.549 0.062,-0.183 0.151,-0.349 0.266,-0.498 0.114,-0.148 0.243,-0.269 0.386,-0.36 0.143,-0.092 0.294,-0.138 0.455,-0.138 0.217,0 0.46,0.072 0.73,0.215 0.268,0.143 0.549,0.329 0.841,0.558 0.292,0.229 0.584,0.492 0.876,0.79 0.292,0.297 0.569,0.601 0.833,0.91 0.262,0.309 0.503,0.609 0.72,0.901 0.218,0.292 0.396,0.547 0.533,0.764 0.091,0.137 0.137,0.252 0.137,0.343 0,0.092 -0.023,0.155 -0.068,0.189 z" /></g><g
           transform="translate(105.8208,14.6744)"
           id="g100"><path
             id="path102"
             style="fill:#683c10;fill-opacity:1;fill-rule:nonzero;stroke:none"
             d="M 0,0 C 0.092,0.274 0.112,0.446 0.061,0.515 0.009,0.583 -0.131,0.612 -0.36,0.601 -0.909,0.589 -1.405,0.575 -1.846,0.558 -2.286,0.541 -2.698,0.518 -3.082,0.489 -3.465,0.46 -3.834,0.423 -4.189,0.377 -4.544,0.332 -4.904,0.274 -5.271,0.206 -5.328,0.137 -5.374,0.071 -5.408,0.008 c -0.034,-0.063 -0.063,-0.123 -0.086,-0.18 -0.023,-0.057 -0.034,-0.12 -0.034,-0.189 0,-0.068 0.011,-0.126 0.034,-0.171 0.023,-0.058 0.049,-0.109 0.077,-0.155 0.028,-0.046 0.083,-0.086 0.163,-0.12 0.114,0.023 0.275,0.043 0.482,0.06 0.206,0.017 0.44,0.031 0.704,0.043 0.262,0.011 0.54,0.02 0.832,0.026 0.292,0.005 0.581,0.008 0.867,0.008 -0.126,-0.732 -0.335,-1.431 -0.627,-2.095 -0.292,-0.664 -0.621,-1.25 -0.987,-1.759 -0.367,-0.51 -0.749,-0.913 -1.151,-1.211 -0.4,-0.297 -0.761,-0.446 -1.081,-0.446 -0.172,0 -0.361,0.049 -0.566,0.146 -0.206,0.097 -0.399,0.286 -0.575,0.566 -0.178,0.281 -0.319,0.667 -0.421,1.159 -0.104,0.493 -0.132,1.133 -0.086,1.923 0.034,0.63 0.126,1.328 0.274,2.095 0.149,0.767 0.344,1.545 0.584,2.335 0.24,0.79 0.524,1.557 0.85,2.301 0.326,0.744 0.68,1.405 1.064,1.983 0.384,0.578 0.793,1.041 1.228,1.391 0.435,0.349 0.882,0.523 1.34,0.523 0.182,0 0.335,-0.049 0.455,-0.146 0.12,-0.097 0.214,-0.223 0.283,-0.377 0.068,-0.155 0.114,-0.332 0.137,-0.532 0.023,-0.201 0.029,-0.404 0.017,-0.61 C -1.643,6.312 -1.686,6.046 -1.76,5.777 -1.834,5.508 -1.937,5.254 -2.068,5.014 -2.2,4.773 -2.357,4.559 -2.541,4.37 -2.724,4.181 -2.925,4.046 -3.142,3.966 -3.039,3.783 -2.941,3.631 -2.85,3.511 c 0.092,-0.12 0.177,-0.22 0.258,-0.301 0.079,-0.091 0.16,-0.171 0.24,-0.24 0.195,-0.137 0.398,-0.197 0.61,-0.18 0.212,0.017 0.449,0.191 0.712,0.523 0.206,0.252 0.381,0.576 0.524,0.971 0.143,0.395 0.24,0.807 0.292,1.236 0.051,0.429 0.054,0.861 0.008,1.296 -0.046,0.435 -0.151,0.827 -0.317,1.176 -0.166,0.349 -0.398,0.633 -0.696,0.85 -0.298,0.218 -0.664,0.326 -1.098,0.326 -0.664,0 -1.3,-0.157 -1.907,-0.472 C -4.83,8.381 -5.399,7.955 -5.932,7.417 -6.464,6.879 -6.951,6.25 -7.392,5.528 -7.832,4.808 -8.219,4.046 -8.55,3.245 -8.883,2.444 -9.146,1.623 -9.34,0.781 -9.535,-0.06 -9.655,-0.876 -9.7,-1.666 c -0.035,-0.744 0.019,-1.448 0.163,-2.111 0.142,-0.664 0.369,-1.248 0.678,-1.752 0.309,-0.503 0.686,-0.901 1.133,-1.193 0.447,-0.292 0.95,-0.438 1.511,-0.438 0.595,0 1.182,0.212 1.76,0.636 0.578,0.423 1.107,0.955 1.588,1.596 0.48,0.641 0.887,1.339 1.219,2.095 0.332,0.755 0.549,1.471 0.653,2.146 0.045,-0.011 0.108,-0.017 0.188,-0.017 0.252,-0.023 0.432,0.034 0.541,0.172 C -0.157,-0.395 -0.068,-0.218 0,0" /></g><g
           transform="translate(105.8208,14.6744)"
           id="g104"><path
             id="path106"
             style="fill:none;stroke:#683c10;stroke-width:0.30000001;stroke-linecap:butt;stroke-linejoin:miter;stroke-miterlimit:10;stroke-dasharray:none;stroke-opacity:1"
             d="M 0,0 C 0.092,0.274 0.112,0.446 0.061,0.515 0.009,0.583 -0.131,0.612 -0.36,0.601 -0.909,0.589 -1.405,0.575 -1.846,0.558 -2.286,0.541 -2.698,0.518 -3.082,0.489 -3.465,0.46 -3.834,0.423 -4.189,0.377 -4.544,0.332 -4.904,0.274 -5.271,0.206 -5.328,0.137 -5.374,0.071 -5.408,0.008 c -0.034,-0.063 -0.063,-0.123 -0.086,-0.18 -0.023,-0.057 -0.034,-0.12 -0.034,-0.189 0,-0.068 0.011,-0.126 0.034,-0.171 0.023,-0.058 0.049,-0.109 0.077,-0.155 0.028,-0.046 0.083,-0.086 0.163,-0.12 0.114,0.023 0.275,0.043 0.482,0.06 0.206,0.017 0.44,0.031 0.704,0.043 0.262,0.011 0.54,0.02 0.832,0.026 0.292,0.005 0.581,0.008 0.867,0.008 -0.126,-0.732 -0.335,-1.431 -0.627,-2.095 -0.292,-0.664 -0.621,-1.25 -0.987,-1.759 -0.367,-0.51 -0.749,-0.913 -1.151,-1.211 -0.4,-0.297 -0.761,-0.446 -1.081,-0.446 -0.172,0 -0.361,0.049 -0.566,0.146 -0.206,0.097 -0.399,0.286 -0.575,0.566 -0.178,0.281 -0.319,0.667 -0.421,1.159 -0.104,0.493 -0.132,1.133 -0.086,1.923 0.034,0.63 0.126,1.328 0.274,2.095 0.149,0.767 0.344,1.545 0.584,2.335 0.24,0.79 0.524,1.557 0.85,2.301 0.326,0.744 0.68,1.405 1.064,1.983 0.384,0.578 0.793,1.041 1.228,1.391 0.435,0.349 0.882,0.523 1.34,0.523 0.182,0 0.335,-0.049 0.455,-0.146 0.12,-0.097 0.214,-0.223 0.283,-0.377 0.068,-0.155 0.114,-0.332 0.137,-0.532 0.023,-0.201 0.029,-0.404 0.017,-0.61 C -1.643,6.312 -1.686,6.046 -1.76,5.777 -1.834,5.508 -1.937,5.254 -2.068,5.014 -2.2,4.773 -2.357,4.559 -2.541,4.37 -2.724,4.181 -2.925,4.046 -3.142,3.966 -3.039,3.783 -2.941,3.631 -2.85,3.511 c 0.092,-0.12 0.177,-0.22 0.258,-0.301 0.079,-0.091 0.16,-0.171 0.24,-0.24 0.195,-0.137 0.398,-0.197 0.61,-0.18 0.212,0.017 0.449,0.191 0.712,0.523 0.206,0.252 0.381,0.576 0.524,0.971 0.143,0.395 0.24,0.807 0.292,1.236 0.051,0.429 0.054,0.861 0.008,1.296 -0.046,0.435 -0.151,0.827 -0.317,1.176 -0.166,0.349 -0.398,0.633 -0.696,0.85 -0.298,0.218 -0.664,0.326 -1.098,0.326 -0.664,0 -1.3,-0.157 -1.907,-0.472 C -4.83,8.381 -5.399,7.955 -5.932,7.417 -6.464,6.879 -6.951,6.25 -7.392,5.528 -7.832,4.808 -8.219,4.046 -8.55,3.245 -8.883,2.444 -9.146,1.623 -9.34,0.781 -9.535,-0.06 -9.655,-0.876 -9.7,-1.666 c -0.035,-0.744 0.019,-1.448 0.163,-2.111 0.142,-0.664 0.369,-1.248 0.678,-1.752 0.309,-0.503 0.686,-0.901 1.133,-1.193 0.447,-0.292 0.95,-0.438 1.511,-0.438 0.595,0 1.182,0.212 1.76,0.636 0.578,0.423 1.107,0.955 1.588,1.596 0.48,0.641 0.887,1.339 1.219,2.095 0.332,0.755 0.549,1.471 0.653,2.146 0.045,-0.011 0.108,-0.017 0.188,-0.017 0.252,-0.023 0.432,0.034 0.541,0.172 C -0.157,-0.395 -0.068,-0.218 0,0 Z" /></g><path
           id="path108"
           style="fill:none;stroke:#683c10;stroke-width:2;stroke-linecap:butt;stroke-linejoin:miter;stroke-miterlimit:10;stroke-dasharray:none;stroke-opacity:1"
           d="M 199.442,1 H 1 v 27.603 h 198.442 z" /></g></g></g></svg>